<?xml version="1.0" encoding="utf-8"?><svg xmlns="http://www.w3.org/2000/svg" viewBox="0 0 690.05 544.32"><defs><style>.cls-1,.cls-3{fill:none;stroke-miterlimit:10;stroke-width:6.04px;}.cls-1{stroke:#4c4c4c;}.cls-2{fill:#0081c9;}.cls-3{stroke:#1e5c77;}</style></defs><title>Homepage_hero_graph</title><g id="Layer_2" data-name="Layer 2"><g id="Layer_1-2" data-name="Layer 1"><line class="cls-1" x1="143.46" y1="363.13" x2="143.46" y2="544.32"/><line class="cls-1" x1="324.65" y1="429.56" x2="324.65" y2="544.32"/><line class="cls-1" x1="306.53" y1="420.5" x2="306.53" y2="544.32"/><line class="cls-1" x1="288.41" y1="408.42" x2="288.41" y2="544.32"/><line class="cls-1" x1="270.29" y1="396.34" x2="270.29" y2="544.32"/><line class="cls-1" x1="252.17" y1="384.27" x2="252.17" y2="544.32"/><line class="cls-1" x1="234.05" y1="369.17" x2="234.05" y2="544.32"/><line class="cls-1" x1="215.93" y1="351.05" x2="215.93" y2="544.32"/><line class="cls-1" x1="197.82" y1="323.87" x2="197.82" y2="544.32"/><line class="cls-1" x1="179.7" y1="302.73" x2="179.7" y2="544.32"/><line class="cls-1" x1="161.58" y1="332.93" x2="161.58" y2="544.32"/><line class="cls-1" x1="505.84" y1="486.94" x2="505.84" y2="544.32"/><line class="cls-1" x1="487.72" y1="483.92" x2="487.72" y2="544.32"/><line class="cls-1" x1="469.6" y1="480.9" x2="469.6" y2="544.32"/><line class="cls-1" x1="451.48" y1="474.86" x2="451.48" y2="544.32"/><line class="cls-1" x1="433.37" y1="468.82" x2="433.37" y2="544.32"/><line class="cls-1" x1="415.25" y1="465.8" x2="415.25" y2="544.32"/><line class="cls-1" x1="397.13" y1="459.76" x2="397.13" y2="544.32"/><line class="cls-1" x1="379.01" y1="453.72" x2="379.01" y2="544.32"/><line class="cls-1" x1="360.89" y1="444.66" x2="360.89" y2="544.32"/><line class="cls-1" x1="342.77" y1="438.62" x2="342.77" y2="544.32"/><line class="cls-1" x1="687.03" y1="517.14" x2="687.03" y2="544.32"/><line class="cls-1" x1="668.91" y1="514.12" x2="668.91" y2="544.32"/><line class="cls-1" x1="650.8" y1="511.1" x2="650.8" y2="544.32"/><line class="cls-1" x1="632.68" y1="508.08" x2="632.68" y2="544.32"/><line class="cls-1" x1="614.56" y1="505.06" x2="614.56" y2="544.32"/><line class="cls-1" x1="596.44" y1="502.04" x2="596.44" y2="544.32"/><line class="cls-1" x1="578.32" y1="499.02" x2="578.32" y2="544.32"/><line class="cls-1" x1="560.2" y1="496" x2="560.2" y2="544.32"/><line class="cls-1" x1="542.08" y1="492.98" x2="542.08" y2="544.32"/><line class="cls-1" x1="523.96" y1="489.96" x2="523.96" y2="544.32"/><line class="cls-1" x1="125.34" y1="396.34" x2="125.34" y2="544.32"/><line class="cls-1" x1="107.22" y1="423.52" x2="107.22" y2="544.32"/><line class="cls-1" x1="89.1" y1="444.66" x2="89.1" y2="544.32"/><line class="cls-1" x1="70.98" y1="468.82" x2="70.98" y2="544.32"/><line class="cls-1" x1="52.86" y1="483.92" x2="52.86" y2="544.32"/><line class="cls-1" x1="34.74" y1="499.02" x2="34.74" y2="544.32"/><line class="cls-1" x1="16.62" y1="511.1" x2="16.62" y2="544.32"/><path class="cls-2" d="M375.83.83C356.65,16.62,337.22,32.1,318.11,48c-11.48,9.54-22.73,19.36-32.94,30.28-11.83,12.64-22.41,26.39-32.89,40.15C241,133.23,230,148.13,219.89,163.82c-22.65,35.29-43,72-63.93,108.37C132.71,312.6,109.28,353,83.38,391.78c-21,31.42-43.64,64-73.08,88.17q-4.25,3.49-8.78,6.61c-3.58,2.47-.18,8.36,3.43,5.87,29.55-20.38,52-50.84,72.42-79.87,26.65-37.94,50.3-77.94,73.54-118C172.84,256.7,194.06,218.4,217,181.16a693.8,693.8,0,0,1,65.3-89.57c23.38-27,52.46-48.48,80-71q9.16-7.47,18.29-15c3.38-2.78-1.46-7.56-4.81-4.8Z"/><line class="cls-3" x1="471.11" y1="38.49" x2="3.03" y2="379.74"/></g></g></svg>