<?xml version="1.0" encoding="utf-8"?><svg xmlns="http://www.w3.org/2000/svg" width="75" height="75" viewBox="0 0 75 75"><defs><style>.a,.b,.c{fill:#0081c9;}.a{stroke:#e78f00;stroke-width:10px;}.a,.c{stroke-miterlimit:10;}.b,.c{stroke:#fff;stroke-width:0.69px;}.d{fill:#fff;}</style></defs><g transform="translate(5 5)"><circle class="a" cx="32.5" cy="32.5" r="32.5"/><path class="b" d="M0,0,32.642.1l.133,43.412-32.642-.1Z" transform="translate(26.604 5.343) rotate(24.06)"/><path class="b" d="M0,0,32.167.1,32.3,43.29l-32.167-.1Z" transform="translate(20.979 8.381) rotate(11.48)"/><rect class="c" width="31.383" height="46.661" transform="translate(16.695 9.699)"/><path class="d" d="M32,28.471c.96,2.539,2.131,4.988,2.532,7.7l.4-.4-1.224-.688a.325.325,0,0,0-.453,0c-1.512,1.4,1.232,2.388,2.358,2.555l-.121-.544c-.658.589-2.8-.144-2.895,1.187a1.028,1.028,0,0,0,.544.914c1.028.642,2.411-.7,2.789,1.217a.333.333,0,0,0,.4.227,12.568,12.568,0,0,1,4.028-.756.325.325,0,0,0,.31-.408,8.313,8.313,0,0,1,1.572-6.137c.552-.778,1.852-1.58,1.927-2.645a2.033,2.033,0,0,0-1.587-2.063.348.348,0,0,0-.28.159c-.559.846.65,2,1.224,2.494.317.272.756-.189.461-.461-1.844-1.572-.053-1.051-1.1.688-.642,1.058-1.512,1.9-2.078,3.023a8.586,8.586,0,0,0-.839,2.759c-.189,1.685.423,1.587-1.3,2.056a10.58,10.58,0,0,1-1.685.37c-.93-.265-.106-.181-.71-.627-.416-.3-.461-.469-.975-.567-.128,0-2.124.355-1.784-.408.068-.159,1.255-.1,1.421-.144a1.98,1.98,0,0,0,1.051-.431A.325.325,0,0,0,35.847,37a4.119,4.119,0,0,1-1.973-.658c-.831-.756.7,0,.907.083s.431-.181.4-.4a37.542,37.542,0,0,0-2.539-7.7c-.144-.385-.756-.219-.62.174Z" transform="translate(-12.996 -11.849)"/><path class="d" d="M42.4,28.088c-1.209.869-2.532,1.587-3.7,2.509-.665.521-.6.9-1.338.355a4.8,4.8,0,0,1-.945-1.9c-.559-1.368-1.035-3.658-2.917-3.461-.794.083-2.139,1.156-1.4,2.063s2.343-.574,2.842-1.164c.265-.317-.189-.756-.461-.461s-1.829,1.307-1.005.627q.144-.824.756-.136a.854.854,0,0,1,.658.529,7.157,7.157,0,0,1,.756,1.648,9.863,9.863,0,0,0,1.95,3.446.34.34,0,0,0,.461,0c1.307-1.474,3.144-2.358,4.731-3.492.333-.242,0-.8-.333-.559Z" transform="translate(-12.937 -10.998)"/><path class="d" d="M36.156,44.183c-.982-.612-3.023-1.844-3.968-.5a1.323,1.323,0,0,0,.136,1.784c.665.544,1.632.491,2.267,1.043.317.265.756-.189.461-.453a3.915,3.915,0,0,0-1.4-.7c-.582-.189-1.444-.393-1.02-1.2.574-1.088,2.471.151,3.167.582.355.219.68-.34.325-.559Z" transform="translate(-12.799 -16.015)"/><path class="d" d="M34.473,47.4c-1.277,0-3.552-.552-4.013,1.119-.416,1.512,1.383,1.285,2.267,1.149.408-.068.234-.688-.174-.627a5.29,5.29,0,0,1-1.088.113c-.612,0-.537-.642-.091-.96.756-.537,2.2-.166,3.068-.144a.325.325,0,0,0,0-.65Z" transform="translate(-12.362 -17.21)"/><path class="d" d="M35.59,56.974c0-4.172,6.258-5.389,8.616-7.988a3.29,3.29,0,0,0,.93-3.529c-.756-1.7-2.691-1.051-3.87-2.267-.295-.295-.756.159-.461.453,1.375,1.406,6.235.945,2.675,5.162-1.043,1.232-2.94,1.95-4.278,2.8-1.95,1.239-4.285,2.819-4.263,5.366a.325.325,0,1,0,.65,0Z" transform="translate(-13.82 -16.354)"/><path class="d" d="M36.348,44.209c-.982.975-1.383,2.411-2.207,3.522a3.862,3.862,0,0,0-1.081,2.532,32.544,32.544,0,0,0,.461,4.912,4.119,4.119,0,0,0,.93,2.456c.28.31.756-.144.461-.461-.839-.967-1.406-5.57-1.209-6.9.295-1.965,1-1.844,1.784-3.084.552-.846.552-1.753,1.307-2.517a.326.326,0,1,0-.461-.461Z" transform="translate(-13.123 -16.636)"/><path class="d" d="M46.117,27.346a20.06,20.06,0,0,1-1.005-2.8.461.461,0,0,1,.181-.529c.083-.068.37-.325.5-.2.37.355-.62.438-.756.423-.408-.06-.582.567-.174.627.642.1,1.512-.038,1.572-.824a.756.756,0,0,0-.982-.869c-2.1.521-.348,3.22,0,4.376.121.4.756.234.62-.166Z" transform="translate(-16.368 -10.258)"/><path class="d" d="M46.4,23.789c.333.816,1.685,5.638,3.2,4.429.7-.559.62-1.95.68-2.743a11.337,11.337,0,0,1,.166-1.428c.083-.355.166-.907.665-.854.106,0,.529.257.446.423s-.756-.673-.756-.718c-.2-.37-.756-.045-.559.325.28.529.756,1.126,1.451,1.028a.673.673,0,0,0,.62-.756,1.444,1.444,0,0,0-1.285-.945,1.126,1.126,0,0,0-1.058.831,6.25,6.25,0,0,0-.317,1.874,6.167,6.167,0,0,1-.28,2.146c-.491.914-1.217-.937-1.413-1.383-.348-.756-.62-1.587-.945-2.381-.159-.378-.756-.212-.62.174Z" transform="translate(-17.043 -10.106)"/><path class="d" d="M52.982,24.284a5.824,5.824,0,0,0-.325,4.588.325.325,0,0,0,.506.06,8.313,8.313,0,0,0,1.33-2.267,4.172,4.172,0,0,1,.877-1.255.7.7,0,0,1,.582-.212c.295.06.529.491.212.627s-.62-.2-.756-.431-.8,0-.559.325c.438.635,1.406,1.232,2.01.408.506-.673-.136-1.512-.877-1.58-1.829-.227-2.267,3.023-3.25,3.907l.506.06c-.6-1.255-.113-2.872.385-4.081.159-.385-.461-.552-.62-.174Z" transform="translate(-18.725 -10.53)"/><path class="d" d="M57,26.538a5.366,5.366,0,0,0-.907,3.454c.106,1.512,1.557,1.9,2.033,3.2.144.385.756.219.627-.174-.325-.877-.982-1.255-1.512-1.95-.809-.99-.529-3.068.249-4.066.249-.325-.2-.756-.461-.461Z" transform="translate(-19.746 -11.256)"/><path class="d" d="M47.8,42.387c.317-.884.567-1.784.892-2.668a3.786,3.786,0,0,1,2.887-2.774,25.1,25.1,0,0,0,2.932-.877c1.013-.378,3.484-1.617,4.535-.967,3.469,2.146-2.116,2.6-3.023,2.97-2.025.816-2.411,2.947-2.486,4.867a8.813,8.813,0,0,1,0,2.048,8.487,8.487,0,0,0-1.2-.612,6.711,6.711,0,0,0-3.968-.257c-.408.083-.234.71.174.627a6.122,6.122,0,0,1,5.056,1.1.333.333,0,0,0,.491-.28c.121-1.874-.317-4.3.907-5.857,1.368-1.738,3.114-.612,4.618-1.572a2.131,2.131,0,0,0-.219-3.582c-2.214-.975-5.169,1.2-7.263,1.663-1.323.295-2.267.128-3.106,1.323-.96,1.338-1.277,3.167-1.821,4.686-.144.393.484.567.62.174Z" transform="translate(-17.536 -13.661)"/><path class="d" d="M57.01,42.492c1.512.151,2.093.937,2.947,2.056s2.207,1.95,1.58,3.416c-.166.378.393.71.559.325.756-1.837-.552-2.721-1.58-4.074s-1.746-2.192-3.507-2.366c-.416-.045-.408.6,0,.642Z" transform="translate(-20.033 -15.741)"/><path class="d" d="M59.647,42.031c.582-.355,2.056-1.081,2.555-.265.567.952-1.156.975-1.67,1.33-.34.234,0,.8.325.559.521-.355,1.209-.295,1.716-.673a1.164,1.164,0,0,0,.181-1.512c-.688-1.285-2.524-.529-3.431,0A.324.324,0,0,0,59.647,42.031Z" transform="translate(-20.681 -15.331)"/><path class="d" d="M61.642,44.736a11.412,11.412,0,0,1,1.209-.416.756.756,0,0,1,1.028.7c0,.3-.249.295-.514.34a3.477,3.477,0,0,0-.945.242c-.37.181-.045.756.333.559s.922-.121,1.338-.333a.846.846,0,0,0,.378-1.088,1.383,1.383,0,0,0-1.194-1.1,4.618,4.618,0,0,0-1.806.476C61.075,44.252,61.249,44.872,61.642,44.736Z" transform="translate(-21.262 -16.152)"/><path class="d" d="M50.927,49.813c.93.219,1.844.136,2.766.272,2.267.34,3.635,1.768,4.837,3.613a12.629,12.629,0,0,1,2.01,8.117c-.136,1.9-.34,5.1-1.33,6.8-2.524,4.331-10.581,1.005-14.178-.756-4.535-2.267-7.407-4.852-9.636-9.387-.181-.378-.756-.053-.559.325,2.683,5.457,6.484,8.57,12.3,10.709a38.865,38.865,0,0,0,8.578,2.411,3.528,3.528,0,0,0,3.665-1.957c2.222-3.62,2.63-10.694.9-14.518-.756-1.632-1.58-4.474-3.2-5.442s-4.126-.355-5.978-.756c-.408-.1-.574.529-.174.62Z" transform="translate(-14.35 -18.624)"/><path class="d" d="M36.936,66.649c-.113,1.708-.756,4.429,1.119,5.457a2.519,2.519,0,0,0,3.892-1.776c.038-.416-.612-.416-.65,0-.189,1.889-3.023,2-3.658.37-.491-1.232-.144-2.774-.053-4.051A.325.325,0,0,0,36.936,66.649Z" transform="translate(-14.219 -22.859)"/><path class="d" d="M42.944,53.633c0,1.02-.635,3.779.537,4.444.65.348,1.632-.038,2.343.219s.6.219.673.922a3.956,3.956,0,0,0,.06.846,5.411,5.411,0,0,0,.166,1.338c.128.393.756.227.627-.174-.423-1.315.34-3.681-1.632-3.779-1.232-.045-2.1.552-2.2-.914-.068-.967.06-1.935,0-2.895a.325.325,0,0,0-.642,0Z" transform="translate(-15.955 -19.161)"/><path class="d" d="M43.86,59.337c.068.355.7.642.937.862.076.068.37.317.348.423s-.7.287-.862.317c-.408.068-.234.7.174.627.673-.121,1.716-.514,1.187-1.376a2.645,2.645,0,0,0-.673-.688l-.378-.287-.1-.083c-.091-.045,0-.068,0,0-.076-.416-.7-.242-.627.166Z" transform="translate(-16.199 -20.559)"/><path class="d" d="M46.807,49.9c.113,1.111-.756,2.343-1.126,3.333-.287.68-.8,1.723-.34,2.434.219.348.756,0,.559-.325-.446-.7.612-2.418.877-3.023a5.169,5.169,0,0,0,.673-2.418C47.449,49.492,46.761,49.484,46.807,49.9Z" transform="translate(-16.583 -17.985)"/><path class="d" d="M64.775,53.014c-.174.567-.665,1.073-.7,1.685a6.876,6.876,0,0,0,.242,1.285c.1.688.257,1.776,1.088,1.882.416.06.408-.59,0-.642s-.431-1.512-.506-1.776c-.1-.438-.272-.65-.076-1.111a10.877,10.877,0,0,0,.529-1.126.325.325,0,0,0-.62-.174Z" transform="translate(-22.016 -18.89)"/><path class="d" d="M36,58.54a4.066,4.066,0,0,0,.144,2.819c.378.816,1.051,1.1,1.587,1.753,1.088,1.315.514,3.3,2.509,3.779.4.106.574-.521.174-.62C38.8,65.856,39.2,64,38.4,62.878a5.381,5.381,0,0,0-.756-.718,3.235,3.235,0,0,1-1-3.469.325.325,0,0,0-.62-.174Z" transform="translate(-13.942 -20.626)"/><path class="d" d="M57.432,50.575c1.406,1.005.552,4.285.582,5.751a20.769,20.769,0,0,0,.816,5.29c.635,2.381,1-.756.212,2.849-1.383,6.356-.3,1.051-.544,1.927-.113.416-.831,2.6-.892,2.653-.3.287.159.756.461.461a7.256,7.256,0,0,0,.6-.71c.181-.212.567-1.912.665-2.056s.6-.144.756-.348c.877-1.292,1.081-1.512.5-3.144-.363-1.005-1.224-1.844-1.512-2.872a14.632,14.632,0,0,1-.317-3.454,22.976,22.976,0,0,1,.106-3.3c.128-1.512.227-2.675-1.051-3.59-.333-.242-.658.325-.325.559Z" transform="translate(-20.144 -18.671)"/><path class="d" d="M60.731,71.131a5.4,5.4,0,0,0-.113,2.267,5.29,5.29,0,0,0,.31,2.124.325.325,0,1,0,.559-.333,4.535,4.535,0,0,1-.219-1.844,5,5,0,0,1,0-1.9c.159-.385-.4-.71-.559-.333Z" transform="translate(-20.975 -24.133)"/><path class="d" d="M58.2,61.946c-.673-.537-1.716.355-2.169.846a1.02,1.02,0,0,0-.272.96c.06.408.567,1.36.2,1.678s.144.756.461.453c.59-.514.181-1.353,0-1.973a.7.7,0,0,1,.272-.892c.106-.083.907-.756,1.043-.627.325.257.756-.2.453-.461Z" transform="translate(-19.642 -21.452)"/><path class="d" d="M55.628,64.5a3.847,3.847,0,0,1-1.353.552c-.408.083-.234.71.174.627a4.376,4.376,0,0,0,1.512-.62c.348-.227,0-.794-.325-.559Z" transform="translate(-19.138 -22.106)"/><path class="d" d="M58.73,58.029c.756-.083.831.6,1.058,1.134a1.149,1.149,0,0,0,1.292.824c.408-.068.234-.7-.174-.627s-.642-.756-.8-1.126a1.3,1.3,0,0,0-1.376-.846C58.322,57.432,58.314,58.082,58.73,58.029Z" transform="translate(-20.43 -20.119)"/><path class="d" d="M59.229,65.28a4.059,4.059,0,0,0,1.821.348c.756.06,1.428.151,1.239,1.073-.083.408.537.582.627.174a1.338,1.338,0,0,0-.862-1.753c-.756-.234-1.738,0-2.464-.4a.325.325,0,0,0-.325.559Z" transform="translate(-20.672 -22.222)"/></g></svg>