<?xml version="1.0" encoding="utf-8"?>
<!-- Generator: Adobe Illustrator 23.0.2, SVG Export Plug-In . SVG Version: 6.00 Build 0)  -->
<svg version="1.1" id="Layer_1" xmlns="http://www.w3.org/2000/svg" xmlns:xlink="http://www.w3.org/1999/xlink" x="0px" y="0px"
	 viewBox="0 0 101.2 101.2" style="enable-background:new 0 0 101.2 101.2;" xml:space="preserve">
<style type="text/css">
	.st0{fill:#0081C9;stroke:#E78F00;stroke-width:10;stroke-miterlimit:10;}
	.st1{fill:#0081C9;stroke:#FFFFFF;stroke-width:1.01;stroke-miterlimit:10;}
	.st2{fill:none;stroke:#FFFFFF;stroke-width:1.01;stroke-miterlimit:10;}
	.st3{fill:none;stroke:#FFFFFF;stroke-width:1.012;stroke-miterlimit:10;}
</style>
<circle class="st0" cx="50.6" cy="50.6" r="45.6"/>
<rect x="23.3" y="31.2" transform="matrix(0.4611 -0.8873 0.8873 0.4611 -20.4 74.727)" class="st1" width="56.1" height="45.9"/>
<line class="st2" x1="44.6" y1="23.9" x2="79.6" y2="42.1"/>
<line class="st2" x1="42.5" y1="28.1" x2="76.5" y2="45.8"/>
<line class="st2" x1="40.3" y1="32.3" x2="71.2" y2="48.3"/>
<rect x="34" y="41" transform="matrix(0.4611 -0.8873 0.8873 0.4611 -18.8339 61.5461)" class="st2" width="14.5" height="10.6"/>
<line class="st2" x1="29.4" y1="54.2" x2="64.3" y2="72.3"/>
<line class="st2" x1="27.2" y1="58.3" x2="60.3" y2="75.6"/>
<line class="st2" x1="25" y1="62.5" x2="54.5" y2="77.9"/>
<line class="st2" x1="52.2" y1="44.3" x2="71.6" y2="54.4"/>
<line class="st2" x1="50.1" y1="48.4" x2="68.1" y2="57.7"/>
<line class="st2" x1="48" y1="52.4" x2="68.3" y2="63"/>
<line class="st2" x1="45.9" y1="56.5" x2="61.2" y2="64.5"/>
<rect x="23.3" y="24.4" transform="matrix(0.2117 -0.9773 0.9773 0.2117 -5.8521 87.515)" class="st1" width="56.1" height="45.9"/>
<line class="st2" x1="36.9" y1="20" x2="75.4" y2="28.3"/>
<line class="st2" x1="35.9" y1="24.6" x2="73.4" y2="32.7"/>
<line class="st2" x1="34.9" y1="29.2" x2="68.9" y2="36.6"/>
<rect x="32.5" y="37.2" transform="matrix(0.2095 -0.9778 0.9778 0.2095 -10.1325 72.4182)" class="st3" width="14.5" height="10.6"/>
<line class="st2" x1="30.1" y1="53.2" x2="68.6" y2="61.5"/>
<line class="st2" x1="29.1" y1="57.8" x2="65.6" y2="65.7"/>
<line class="st2" x1="28.1" y1="62.4" x2="60.7" y2="69.4"/>
<line class="st2" x1="49.6" y1="37.6" x2="70.9" y2="42.2"/>
<line class="st2" x1="48.6" y1="42.1" x2="68.5" y2="46.4"/>
<line class="st2" x1="47.7" y1="46.6" x2="70" y2="51.4"/>
<line class="st2" x1="46.7" y1="51.1" x2="63.6" y2="54.7"/>
<rect x="24.6" y="24.6" class="st1" width="45.9" height="56.1"/>
<line class="st2" x1="27.7" y1="28.9" x2="67.1" y2="28.9"/>
<line class="st2" x1="27.7" y1="33.6" x2="66" y2="33.6"/>
<line class="st2" x1="27.7" y1="38.3" x2="62.5" y2="38.3"/>
<rect x="29.7" y="43.1" class="st2" width="10.6" height="14.5"/>
<line class="st2" x1="28.1" y1="62.8" x2="67.5" y2="62.8"/>
<line class="st2" x1="28.1" y1="67.5" x2="65.4" y2="67.5"/>
<line class="st2" x1="28.1" y1="72.2" x2="61.3" y2="72.2"/>
<line class="st2" x1="43.8" y1="43.5" x2="65.7" y2="43.5"/>
<line class="st2" x1="43.8" y1="48.1" x2="64.1" y2="48.1"/>
<line class="st2" x1="43.8" y1="52.7" x2="66.7" y2="52.7"/>
<line class="st2" x1="43.8" y1="57.2" x2="61.1" y2="57.2"/>
</svg>
