<?xml version="1.0" encoding="utf-8"?><svg xmlns="http://www.w3.org/2000/svg" width="101.16" height="101.16" viewBox="0 0 101.16 101.16"><defs><style>.a,.b{fill:#0081c9;stroke-miterlimit:10;}.a{stroke:#e78f00;stroke-width:10px;}.b{stroke:#fff;stroke-width:1.15px;}</style></defs><circle class="a" cx="45.58" cy="45.58" r="45.58" transform="translate(5 5)"/><rect class="b" width="7.66" height="12.68" transform="translate(32.24 20.34)"/><rect class="b" width="7.66" height="6.8" transform="translate(32.24 32.1)"/><rect class="b" width="7.66" height="9.28" transform="translate(32.24 38.9)"/><rect class="b" width="7.66" height="3.09" transform="translate(32.24 48.49)"/><rect class="b" width="7.66" height="12.68" transform="translate(32.24 51.89)"/><rect class="b" width="7.66" height="6.8" transform="translate(32.24 63.65)"/><rect class="b" width="7.66" height="9.28" transform="translate(32.24 70.45)"/><rect class="b" width="7.66" height="3.09" transform="translate(32.24 80.04)"/><rect class="b" width="7.66" height="10.15" transform="translate(45.12 32.87)"/><rect class="b" width="7.66" height="5.45" transform="translate(45.12 42.28)"/><rect class="b" width="7.66" height="7.43" transform="translate(45.12 47.73)"/><rect class="b" width="7.66" height="2.48" transform="translate(45.12 55.4)"/><rect class="b" width="7.66" height="10.15" transform="translate(45.12 58.12)"/><rect class="b" width="7.66" height="5.45" transform="translate(45.12 67.53)"/><rect class="b" width="7.66" height="7.43" transform="translate(45.12 72.98)"/><rect class="b" width="7.66" height="2.48" transform="translate(45.12 80.66)"/><rect class="b" width="7.66" height="11.09" transform="translate(65.3 83.14) rotate(180)"/><rect class="b" width="7.66" height="5.95" transform="translate(65.3 72.85) rotate(180)"/><rect class="b" width="7.66" height="8.11" transform="translate(65.3 66.91) rotate(180)"/><rect class="b" width="7.66" height="2.7" transform="translate(65.3 58.52) rotate(180)"/><rect class="b" width="7.66" height="11.09" transform="translate(65.3 55.54) rotate(180)"/><rect class="b" width="7.66" height="5.95" transform="translate(65.3 45.27) rotate(180)"/><rect class="b" width="7.66" height="8.11" transform="translate(65.3 39.31) rotate(180)"/><rect class="b" width="7.66" height="2.7" transform="translate(65.3 30.93) rotate(180)"/><rect class="b" width="7.66" height="6.97" transform="translate(70.17 48.64)"/><rect class="b" width="7.66" height="3.74" transform="translate(70.17 55.1)"/><rect class="b" width="7.66" height="5.1" transform="translate(70.17 58.84)"/><rect class="b" width="7.66" height="1.7" transform="translate(70.17 64.1)"/><rect class="b" width="7.66" height="6.97" transform="translate(70.17 65.97)"/><rect class="b" width="7.66" height="3.74" transform="translate(70.17 72.43)"/><rect class="b" width="7.66" height="5.1" transform="translate(70.17 76.17)"/><rect class="b" width="7.66" height="1.7" transform="translate(70.17 81.43)"/><line class="b" x1="56.72" transform="translate(24.24 83.13)"/><line class="b" y1="67.12" transform="translate(24.24 16.01)"/><line class="b" x1="2.78" transform="translate(21.63 16.01)"/><line class="b" x1="2.78" transform="translate(21.63 29.31)"/><line class="b" x1="2.78" transform="translate(21.63 42.61)"/><line class="b" x1="2.78" transform="translate(21.63 55.91)"/><line class="b" x1="2.78" transform="translate(21.28 69.83)"/><line class="b" x1="2.78" transform="translate(21.28 83.13)"/></svg>