<?xml version="1.0" encoding="utf-8"?><svg xmlns="http://www.w3.org/2000/svg" width="101.16" height="101.16" viewBox="0 0 101.16 101.16"><defs><style>.a,.b{fill:#0081c9;stroke:#fff;stroke-miterlimit:10;}.a{stroke-width:10px;}.b{stroke-width:0.69px;}.c{fill:#fff;}</style></defs><circle class="a" cx="45.58" cy="45.58" r="45.58" transform="translate(5 5)"/><rect class="b" width="46.68" height="61.74" transform="translate(42.115 12.069) rotate(24.06)"/><rect class="b" width="46.68" height="61.74" transform="translate(33.85 16.089) rotate(11.48)"/><rect class="b" width="46.68" height="61.74" transform="translate(27.09 20.56)"/><path class="c" d="M32,28.59c1.27,3.36,2.82,6.6,3.35,10.19l.53-.53-1.62-.91a.43.43,0,0,0-.6,0c-2,1.85,1.63,3.16,3.12,3.38L36.62,40c-.87.78-3.71-.19-3.83,1.57a1.36,1.36,0,0,0,.72,1.21c1.36.85,3.19-.92,3.69,1.61a.44.44,0,0,0,.53.3,16.63,16.63,0,0,1,5.33-1,.43.43,0,0,0,.41-.54,11,11,0,0,1,2.08-8.12c.73-1.03,2.45-2.09,2.55-3.5A2.69,2.69,0,0,0,46,28.8a.46.46,0,0,0-.37.21c-.74,1.12.86,2.65,1.62,3.3.42.36,1-.25.61-.61-2.44-2.08-.07-1.39-1.45.91-.85,1.4-2,2.52-2.75,4a11.36,11.36,0,0,0-1.11,3.65c-.25,2.23.56,2.1-1.72,2.72a14,14,0,0,1-2.23.49c-1.23-.35-.14-.24-.94-.83-.55-.4-.61-.62-1.29-.75-.17,0-2.81.47-2.36-.54.09-.21,1.66-.13,1.88-.19a2.62,2.62,0,0,0,1.39-.57.43.43,0,0,0-.19-.72A5.45,5.45,0,0,1,34.48,39c-1.1-1,.93,0,1.2.11s.57-.24.53-.53c-.54-3.59-2.08-6.83-3.36-10.19-.19-.51-1-.29-.82.23Z"/><path class="c" d="M45.8,28.9c-1.6,1.15-3.35,2.1-4.89,3.32-.88.69-.8,1.19-1.77.47a6.354,6.354,0,0,1-1.25-2.52c-.74-1.81-1.37-4.84-3.86-4.58-1.05.11-2.83,1.53-1.85,2.73s3.1-.76,3.76-1.54c.35-.42-.25-1-.61-.61S32.91,27.9,34,27q.19-1.09,1-.18a1.13,1.13,0,0,1,.87.7,9.47,9.47,0,0,1,1,2.18,13.05,13.05,0,0,0,2.58,4.56.45.45,0,0,0,.61,0c1.73-1.95,4.16-3.12,6.26-4.62.44-.32,0-1.06-.44-.74Z"/><path class="c" d="M37.53,44.54c-1.3-.81-4-2.44-5.25-.66a1.75,1.75,0,0,0,.18,2.36c.88.72,2.16.65,3,1.38.42.35,1-.25.61-.6a5.18,5.18,0,0,0-1.85-.92c-.77-.25-1.91-.52-1.35-1.59.76-1.44,3.27.2,4.19.77.47.29.9-.45.43-.74Z"/><path class="c" d="M35.79,47.43c-1.69,0-4.7-.73-5.31,1.48-.55,2,1.83,1.7,3,1.52.54-.09.31-.91-.23-.83a7,7,0,0,1-1.44.15c-.81,0-.71-.85-.12-1.27,1-.71,2.91-.22,4.06-.19a.43.43,0,0,0,0-.86Z"/><path class="c" d="M35.8,61.46c0-5.52,8.28-7.13,11.4-10.57,1.14-1.27,2-3,1.23-4.67-1-2.25-3.56-1.39-5.12-3-.39-.39-1,.21-.61.6,1.82,1.86,8.25,1.25,3.54,6.83-1.38,1.63-3.89,2.58-5.66,3.71C38,56,34.91,58.09,34.94,61.46a.43.43,0,1,0,.86,0Z"/><path class="c" d="M37.41,44.24c-1.3,1.29-1.83,3.19-2.92,4.66a5.11,5.11,0,0,0-1.43,3.35,43.06,43.06,0,0,0,.61,6.5A5.45,5.45,0,0,0,34.9,62c.37.41,1-.19.61-.61-1.11-1.28-1.86-7.37-1.6-9.13.39-2.6,1.32-2.44,2.36-4.08C37,47.06,37,45.86,38,44.85a.431.431,0,0,0-.61-.61Z"/><path class="c" d="M46.66,28.71A26.541,26.541,0,0,1,45.33,25a.61.61,0,0,1,.24-.7c.11-.09.49-.43.66-.27.49.47-.82.58-1,.56-.54-.08-.77.75-.23.83.85.13,2-.05,2.08-1.09a1,1,0,0,0-1.3-1.15c-2.78.69-.46,4.26,0,5.79.16.53,1,.31.82-.22Z"/><path class="c" d="M46.41,24.19c.44,1.08,2.23,7.46,4.24,5.86.92-.74.82-2.58.9-3.63a15,15,0,0,1,.22-1.89c.11-.47.22-1.2.88-1.13.14,0,.7.34.59.56s-1-.89-1-.95c-.26-.49-1-.06-.74.43.37.7,1,1.49,1.92,1.36a.89.89,0,0,0,.82-1,1.91,1.91,0,0,0-1.7-1.25,1.49,1.49,0,0,0-1.4,1.1,8.27,8.27,0,0,0-.42,2.48,8.16,8.16,0,0,1-.37,2.84c-.65,1.21-1.61-1.24-1.87-1.83-.46-1-.82-2.1-1.25-3.15-.21-.5-1-.28-.82.23Z"/><path class="c" d="M53.2,24.36c-.77,1.85-1.33,4.17-.43,6.07a.43.43,0,0,0,.67.08,11,11,0,0,0,1.76-3,5.52,5.52,0,0,1,1.16-1.66.92.92,0,0,1,.77-.28c.39.08.7.65.28.83s-.82-.26-1-.57-1.06,0-.74.43c.58.84,1.86,1.63,2.66.54.67-.89-.18-2-1.16-2.09-2.42-.3-3,4-4.3,5.17l.67.08c-.79-1.66-.15-3.8.51-5.4.21-.51-.61-.73-.82-.23Z"/><path class="c" d="M57.3,26.57a7.1,7.1,0,0,0-1.2,4.57c.14,2,2.06,2.51,2.69,4.23.19.51,1,.29.83-.23-.43-1.16-1.3-1.66-2-2.58-1.07-1.31-.7-4.06.33-5.38.33-.43-.27-1-.61-.61Z"/><path class="c" d="M48,45c.42-1.17.75-2.36,1.18-3.53C50,39.39,50.9,38.31,53,37.8a33.21,33.21,0,0,0,3.88-1.16c1.34-.5,4.61-2.14,6-1.28,4.59,2.84-2.8,3.44-4,3.93-2.68,1.08-3.19,3.9-3.29,6.44a11.661,11.661,0,0,1,0,2.71A11.231,11.231,0,0,0,54,47.63a8.88,8.88,0,0,0-5.25-.34c-.54.11-.31.94.23.83a8.1,8.1,0,0,1,6.69,1.45.44.44,0,0,0,.65-.37c.16-2.48-.42-5.69,1.2-7.75,1.81-2.3,4.12-.81,6.11-2.08a2.82,2.82,0,0,0-.29-4.74c-2.93-1.29-6.84,1.59-9.61,2.2-1.75.39-3,.17-4.11,1.75-1.27,1.77-1.69,4.19-2.41,6.2-.19.52.64.75.82.23Z"/><path class="c" d="M57.11,42.7c2,.2,2.77,1.24,3.9,2.72S63.93,48,63.1,49.94c-.22.5.52.94.74.43,1-2.43-.73-3.6-2.09-5.39s-2.31-2.9-4.64-3.13c-.55-.06-.54.8,0,.85Z"/><path class="c" d="M59.8,42.44c.77-.47,2.72-1.43,3.38-.35.75,1.26-1.53,1.29-2.21,1.76-.45.31,0,1.06.43.74.69-.47,1.6-.39,2.27-.89a1.54,1.54,0,0,0,.24-2c-.91-1.7-3.34-.7-4.54,0a.429.429,0,0,0,.43.74Z"/><path class="c" d="M61.77,45.09a15.1,15.1,0,0,1,1.6-.55,1,1,0,0,1,1.36.92c0,.4-.33.39-.68.45a4.6,4.6,0,0,0-1.25.32c-.49.24-.06,1,.44.74s1.22-.16,1.77-.44a1.12,1.12,0,0,0,.5-1.44,1.83,1.83,0,0,0-1.58-1.45,6.11,6.11,0,0,0-2.39.63c-.52.18-.29,1,.23.82Z"/><path class="c" d="M56.14,50c1.23.29,2.44.18,3.66.36,3,.45,4.81,2.34,6.4,4.78a16.71,16.71,0,0,1,2.66,10.74c-.18,2.52-.45,6.75-1.76,9-3.34,5.73-14,1.33-18.76-1-6-3-9.8-6.42-12.75-12.42-.24-.5-1-.07-.74.43,3.55,7.22,8.58,11.34,16.28,14.17,3.35,1.23,7.79,2.84,11.35,3.19,2.25.22,3.66-.67,4.85-2.59,2.94-4.79,3.48-14.15,1.19-19.21-1-2.16-2.09-5.92-4.24-7.2s-5.46-.47-7.91-1c-.54-.13-.76.7-.23.82Z"/><path class="c" d="M37,66.75c-.15,2.26-1,5.86,1.48,7.22,2.14,1.19,4.89.21,5.15-2.35.05-.55-.81-.55-.86,0-.25,2.5-4,2.65-4.84.49-.65-1.63-.19-3.67-.07-5.36A.43.43,0,0,0,37,66.75Z"/><path class="c" d="M43,53.72c0,1.35-.84,5,.71,5.88.86.46,2.16-.05,3.1.29s.8.29.89,1.22a5.235,5.235,0,0,0,.08,1.12A7.16,7.16,0,0,0,48,64c.17.52,1,.3.83-.23-.56-1.74.45-4.87-2.16-5-1.63-.06-2.78.73-2.91-1.21-.09-1.28.08-2.56,0-3.83a.43.43,0,0,0-.85,0Z"/><path class="c" d="M43.86,59.48c.09.47.92.85,1.24,1.14.1.09.49.42.46.56s-.92.38-1.14.42c-.54.09-.31.92.23.83.89-.16,2.27-.68,1.57-1.82a3.5,3.5,0,0,0-.89-.91l-.5-.38-.13-.11c-.12-.06,0-.09,0,0-.1-.55-.92-.32-.83.22Z"/><path class="c" d="M47.34,50c.15,1.47-1,3.1-1.49,4.41-.38.9-1.06,2.28-.45,3.22.29.46,1,0,.74-.43-.59-.92.81-3.2,1.16-4a6.84,6.84,0,0,0,.89-3.2C48.19,49.46,47.28,49.45,47.34,50Z"/><path class="c" d="M65,53.07c-.23.75-.88,1.42-.92,2.23A9.1,9.1,0,0,0,64.4,57c.13.91.34,2.35,1.44,2.49.55.08.54-.78,0-.85s-.57-2-.67-2.35c-.13-.58-.36-.86-.1-1.47a14.389,14.389,0,0,0,.7-1.49.43.43,0,0,0-.82-.23Z"/><path class="c" d="M36.06,58.61a5.38,5.38,0,0,0,.19,3.73c.5,1.08,1.39,1.46,2.1,2.32,1.44,1.74.68,4.36,3.32,5,.53.14.76-.69.23-.82-2.14-.55-1.6-3-2.67-4.49a7.12,7.12,0,0,0-1-.95,4.28,4.28,0,0,1-1.32-4.59.43.43,0,0,0-.82-.23Z"/><path class="c" d="M57.46,50.77c1.86,1.33.73,5.67.77,7.61a27.48,27.48,0,0,0,1.08,7c.84,3.15,1.32-1,.28,3.77-1.83,8.41-.4,1.39-.72,2.55-.15.55-1.1,3.44-1.18,3.51-.4.38.21,1,.61.61a9.6,9.6,0,0,0,.79-.94c.24-.28.75-2.53.88-2.72s.8-.19,1-.46c1.16-1.71,1.43-2,.66-4.16-.48-1.33-1.62-2.44-2-3.8a19.36,19.36,0,0,1-.42-4.57,30.4,30.4,0,0,1,.14-4.37c.17-2,.3-3.54-1.39-4.75-.44-.32-.87.43-.43.74Z"/><path class="c" d="M60.79,71.19a7.14,7.14,0,0,0-.15,3A7,7,0,0,0,61.05,77a.43.43,0,1,0,.74-.44,6,6,0,0,1-.29-2.44,6.61,6.61,0,0,1,0-2.51c.21-.51-.53-.94-.74-.44Z"/><path class="c" d="M59,62c-.89-.71-2.27.47-2.87,1.12a1.35,1.35,0,0,0-.36,1.27c.08.54.75,1.8.26,2.22s.19,1,.61.6c.78-.68.24-1.79,0-2.61A.92.92,0,0,1,57,63.42c.14-.11,1.2-1,1.38-.83.43.34,1-.27.6-.61Z"/><path class="c" d="M56.14,64.52a5.09,5.09,0,0,1-1.79.73c-.54.11-.31.94.23.83a5.79,5.79,0,0,0,2-.82c.46-.3,0-1.05-.43-.74Z"/><path class="c" d="M58.83,58.24c1-.11,1.1.8,1.4,1.5a1.52,1.52,0,0,0,1.71,1.09c.54-.09.31-.92-.23-.83s-.85-1-1.06-1.49a1.72,1.72,0,0,0-1.82-1.12c-.54.06-.55.92,0,.85Z"/><path class="c" d="M59.26,65.47a5.37,5.37,0,0,0,2.41.46c1,.08,1.89.2,1.64,1.42-.11.54.71.77.83.23A1.77,1.77,0,0,0,63,65.26c-1-.31-2.3,0-3.26-.53a.43.43,0,0,0-.43.74Z"/></svg>