<?xml version="1.0" encoding="utf-8"?><svg xmlns="http://www.w3.org/2000/svg" width="101.16" height="101.16" viewBox="0 0 101.16 101.16"><defs><style>.a,.b{fill:#0081c9;}.a,.b,.c,.d{stroke:#fff;stroke-miterlimit:10;}.a{stroke-width:10px;}.b,.c{stroke-width:1.01px;}.c,.d{fill:none;}.d{stroke-width:1.012px;}</style></defs><circle class="a" cx="45.58" cy="45.58" r="45.58" transform="translate(5 5)"/><rect class="b" width="45.91" height="56.11" transform="translate(43.893 18.68) rotate(27.46)"/><line class="c" x2="34.96" y2="18.16" transform="translate(44.63 23.91)"/><line class="c" x2="34.05" y2="17.7" transform="translate(42.45 28.1)"/><line class="c" x2="30.88" y2="16.04" transform="translate(40.27 32.3)"/><rect class="c" width="10.57" height="14.46" transform="translate(39.9 37.427) rotate(27.46)"/><line class="c" x2="34.95" y2="18.17" transform="translate(29.36 54.15)"/><line class="c" x2="33.14" y2="17.22" transform="translate(27.18 58.35)"/><line class="c" x2="29.52" y2="15.34" transform="translate(25 62.54)"/><line class="c" x2="19.37" y2="10.07" transform="translate(52.24 44.29)"/><line class="c" x2="18.02" y2="9.36" transform="translate(50.12 48.36)"/><line class="c" x2="20.27" y2="10.53" transform="translate(48.01 52.44)"/><line class="c" x2="15.3" y2="7.95" transform="translate(45.89 56.51)"/><rect class="b" width="45.91" height="56.11" transform="translate(34.826 15.107) rotate(12.22)"/><line class="c" x2="38.5" y2="8.34" transform="translate(36.91 19.96)"/><line class="c" x2="37.51" y2="8.12" transform="translate(35.91 24.58)"/><line class="c" x2="34.02" y2="7.36" transform="translate(34.91 29.2)"/><rect class="d" width="10.594" height="14.492" transform="translate(36.063 34.281) rotate(12.095)"/><line class="c" x2="38.5" y2="8.34" transform="translate(30.13 53.15)"/><line class="c" x2="36.5" y2="7.91" transform="translate(29.13 57.77)"/><line class="c" x2="32.52" y2="7.05" transform="translate(28.13 62.39)"/><line class="c" x2="21.34" y2="4.62" transform="translate(49.61 37.62)"/><line class="c" x2="19.84" y2="4.3" transform="translate(48.64 42.11)"/><line class="c" x2="22.33" y2="4.83" transform="translate(47.67 46.6)"/><line class="c" x2="16.85" y2="3.64" transform="translate(46.7 51.09)"/><rect class="b" width="45.91" height="56.11" transform="translate(24.61 24.6)"/><line class="c" x2="39.39" transform="translate(27.67 28.9)"/><line class="c" x2="38.37" transform="translate(27.67 33.63)"/><line class="c" x2="34.8" transform="translate(27.67 38.35)"/><rect class="c" width="10.57" height="14.46" transform="translate(29.71 43.08)"/><line class="c" x2="39.4" transform="translate(28.06 62.78)"/><line class="c" x2="37.36" transform="translate(28.06 67.5)"/><line class="c" x2="33.28" transform="translate(28.06 72.23)"/><line class="c" x2="21.83" transform="translate(43.82 43.48)"/><line class="c" x2="20.3" transform="translate(43.82 48.07)"/><line class="c" x2="22.85" transform="translate(43.82 52.66)"/><line class="c" x2="17.24" transform="translate(43.82 57.25)"/></svg>