<svg xmlns="http://www.w3.org/2000/svg" width="101.16" height="101.16" viewBox="0 0 101.16 101.16"><defs><style>.a,.b{fill:#0081c9;}.a,.b,.c{stroke:#fff;stroke-miterlimit:10;}.a{stroke-width:10px;}.b,.c{stroke-width:1.04px;}.c{fill:none;}</style></defs><circle class="a" cx="45.58" cy="45.58" r="45.58" transform="translate(5 5)"/><rect class="b" width="28.26" height="34.54" transform="translate(53.265 18.83) rotate(27.46)"/><line class="c" x2="21.52" y2="11.18" transform="translate(53.71 22.04)"/><line class="c" x2="20.96" y2="10.89" transform="translate(52.37 24.63)"/><line class="c" x2="19.01" y2="9.87" transform="translate(51.03 27.21)"/><rect class="c" width="6.5" height="8.9" transform="translate(50.802 30.37) rotate(27.46)"/><line class="c" x2="21.52" y2="11.18" transform="translate(44.31 40.66)"/><line class="c" x2="20.4" y2="10.6" transform="translate(42.97 43.24)"/><line class="c" x2="18.17" y2="9.44" transform="translate(41.63 45.82)"/><line class="c" x2="11.92" y2="6.19" transform="translate(58.4 34.59)"/><line class="c" x2="11.08" y2="5.76" transform="translate(57.1 37.1)"/><line class="c" x2="12.48" y2="6.49" transform="translate(55.79 39.6)"/><line class="c" x2="9.41" y2="4.89" transform="translate(54.49 42.11)"/><rect class="b" width="28.26" height="34.54" transform="translate(47.679 16.636) rotate(12.22)"/><line class="c" x2="23.7" y2="5.13" transform="translate(48.96 19.61)"/><line class="c" x2="23.08" y2="5" transform="translate(48.35 22.46)"/><line class="c" x2="20.94" y2="4.53" transform="translate(47.73 25.3)"/><rect class="c" width="6.5" height="8.9" transform="translate(48.339 28.411) rotate(12.22)"/><line class="c" x2="23.7" y2="5.14" transform="translate(44.79 40.04)"/><line class="c" x2="22.47" y2="4.86" transform="translate(44.17 42.89)"/><line class="c" x2="20.01" y2="4.34" transform="translate(43.56 45.73)"/><line class="c" x2="13.13" y2="2.84" transform="translate(56.78 30.49)"/><line class="c" x2="12.21" y2="2.64" transform="translate(56.18 33.25)"/><line class="c" x2="13.74" y2="2.98" transform="translate(55.59 36.01)"/><line class="c" x2="10.37" y2="2.25" transform="translate(54.99 38.77)"/><rect class="b" width="28.26" height="34.54" transform="translate(41.39 22.47)"/><line class="c" x2="24.24" transform="translate(43.28 25.12)"/><line class="c" x2="23.61" transform="translate(43.28 28.03)"/><line class="c" x2="21.42" transform="translate(43.28 30.94)"/><rect class="c" width="6.5" height="8.9" transform="translate(44.53 33.84)"/><line class="c" x2="24.24" transform="translate(43.52 45.97)"/><line class="c" x2="22.99" transform="translate(43.52 48.88)"/><line class="c" x2="20.48" transform="translate(43.52 51.79)"/><line class="c" x2="13.43" transform="translate(53.22 34.09)"/><line class="c" x2="12.49" transform="translate(53.22 36.91)"/><line class="c" x2="14.06" transform="translate(53.22 39.74)"/><line class="c" x2="10.61" transform="translate(53.22 42.57)"/><rect class="b" width="43.45" height="58.53" rx="6.75" transform="translate(21.265 77.099) rotate(-89.87)"/><line class="b" x2="58.53" y2="0.13" transform="translate(21.32 51.6)"/><rect class="b" width="8.16" height="5.15" transform="translate(62.609 53.396) rotate(-89.87)"/><path class="b" d="M59.06,33.73V30.47A2.48,2.48,0,0,0,56.6,28H45.4a2.49,2.49,0,0,0-2.49,2.47v3.26h-3.6v-6a3,3,0,0,1,3-3H59.68a3,3,0,0,1,3,3v6"/><rect class="b" width="3.07" height="5.15" transform="translate(62.604 55.938) rotate(-89.87)"/><rect class="b" width="8.16" height="5.15" transform="translate(33.352 53.326) rotate(-89.87)"/><rect class="b" width="3.07" height="5.15" transform="translate(33.348 55.878) rotate(-89.87)"/></svg>