<?xml version="1.0" encoding="utf-8"?>
<!-- Generator: Adobe Illustrator 23.0.2, SVG Export Plug-In . SVG Version: 6.00 Build 0)  -->
<svg version="1.1" id="Layer_1" xmlns="http://www.w3.org/2000/svg" xmlns:xlink="http://www.w3.org/1999/xlink" x="0px" y="0px"
	 viewBox="0 0 101.2 101.2" style="enable-background:new 0 0 101.2 101.2;" xml:space="preserve">
<style type="text/css">
	.st0{fill:#0081C9;stroke:#E78F00;stroke-width:10;stroke-miterlimit:10;}
	.st1{fill:#0081C9;stroke:#FFFFFF;stroke-width:1.04;stroke-miterlimit:10;}
	.st2{fill:none;stroke:#FFFFFF;stroke-width:1.04;stroke-miterlimit:10;}
</style>
<circle class="st0" cx="50.6" cy="50.6" r="45.6"/>
<rect x="40.6" y="26.5" transform="matrix(0.4611 -0.8873 0.8873 0.4611 -4.9199 73.2386)" class="st1" width="34.5" height="28.3"/>
<line class="st2" x1="53.7" y1="22" x2="75.2" y2="33.2"/>
<line class="st2" x1="52.4" y1="24.6" x2="73.3" y2="35.5"/>
<line class="st2" x1="51" y1="27.2" x2="70" y2="37.1"/>
<rect x="47.2" y="32.6" transform="matrix(0.4611 -0.8873 0.8873 0.4611 -3.9579 65.1173)" class="st2" width="8.9" height="6.5"/>
<line class="st2" x1="44.3" y1="40.7" x2="65.8" y2="51.8"/>
<line class="st2" x1="43" y1="43.2" x2="63.4" y2="53.8"/>
<line class="st2" x1="41.6" y1="45.8" x2="59.8" y2="55.3"/>
<line class="st2" x1="58.4" y1="34.6" x2="70.3" y2="40.8"/>
<line class="st2" x1="57.1" y1="37.1" x2="68.2" y2="42.9"/>
<line class="st2" x1="55.8" y1="39.6" x2="68.3" y2="46.1"/>
<line class="st2" x1="54.5" y1="42.1" x2="63.9" y2="47"/>
<rect x="40.6" y="22.4" transform="matrix(0.2117 -0.9773 0.9773 0.2117 9.9136 85.3015)" class="st1" width="34.5" height="28.3"/>
<line class="st2" x1="49" y1="19.6" x2="72.7" y2="24.7"/>
<line class="st2" x1="48.3" y1="22.5" x2="71.4" y2="27.5"/>
<line class="st2" x1="47.7" y1="25.3" x2="68.7" y2="29.8"/>
<rect x="46.1" y="30.2" transform="matrix(0.2117 -0.9773 0.9773 0.2117 7.1785 75.7958)" class="st2" width="8.9" height="6.5"/>
<line class="st2" x1="44.8" y1="40" x2="68.5" y2="45.2"/>
<line class="st2" x1="44.2" y1="42.9" x2="66.6" y2="47.8"/>
<line class="st2" x1="43.6" y1="45.7" x2="63.6" y2="50.1"/>
<line class="st2" x1="56.8" y1="30.5" x2="69.9" y2="33.3"/>
<line class="st2" x1="56.2" y1="33.2" x2="68.4" y2="35.9"/>
<line class="st2" x1="55.6" y1="36" x2="69.3" y2="39"/>
<line class="st2" x1="55" y1="38.8" x2="65.4" y2="41"/>
<rect x="41.4" y="22.5" class="st1" width="28.3" height="34.5"/>
<line class="st2" x1="43.3" y1="25.1" x2="67.5" y2="25.1"/>
<line class="st2" x1="43.3" y1="28" x2="66.9" y2="28"/>
<line class="st2" x1="43.3" y1="30.9" x2="64.7" y2="30.9"/>
<rect x="44.5" y="33.8" class="st2" width="6.5" height="8.9"/>
<line class="st2" x1="43.5" y1="46" x2="67.8" y2="46"/>
<line class="st2" x1="43.5" y1="48.9" x2="66.5" y2="48.9"/>
<line class="st2" x1="43.5" y1="51.8" x2="64" y2="51.8"/>
<line class="st2" x1="53.2" y1="34.1" x2="66.7" y2="34.1"/>
<line class="st2" x1="53.2" y1="36.9" x2="65.7" y2="36.9"/>
<line class="st2" x1="53.2" y1="39.7" x2="67.3" y2="39.7"/>
<line class="st2" x1="53.2" y1="42.6" x2="63.8" y2="42.6"/>
<path class="st1" d="M21.3,70.3l0.1-29.9c0-3.7,3-6.7,6.8-6.7l45,0.1c3.7,0,6.7,3,6.7,6.8l-0.1,29.9c0,3.7-3,6.7-6.8,6.7l-45-0.1
	C24.3,77.1,21.3,74.1,21.3,70.3z"/>
<line class="st2" x1="21.3" y1="51.6" x2="79.8" y2="51.7"/>
<rect x="61.1" y="46.7" transform="matrix(2.268878e-03 -1 1 2.268878e-03 15.7236 114.403)" class="st1" width="8.2" height="5.2"/>
<path class="st1" d="M59.1,33.7v-3.3c0-1.4-1.1-2.5-2.5-2.5H45.4c-1.4,0-2.5,1.1-2.5,2.5v3.3h-3.6v-6c0-1.7,1.3-3,3-3h17.4
	c1.7,0,3,1.3,3,3v6"/>
<rect x="63.6" y="51.8" transform="matrix(2.268878e-03 -1 1 2.268878e-03 10.6259 119.4677)" class="st1" width="3.1" height="5.2"/>
<rect x="31.9" y="46.7" transform="matrix(2.268878e-03 -1 1 2.268878e-03 -13.397 85.0763)" class="st1" width="8.2" height="5.2"/>
<rect x="34.4" y="51.8" transform="matrix(2.268878e-03 -1 1 2.268878e-03 -18.5037 90.1519)" class="st1" width="3.1" height="5.2"/>
</svg>
