<?xml version="1.0" encoding="utf-8"?>
<!-- Generator: Adobe Illustrator 23.0.2, SVG Export Plug-In . SVG Version: 6.00 Build 0)  -->
<svg version="1.1" id="Layer_1" xmlns="http://www.w3.org/2000/svg" xmlns:xlink="http://www.w3.org/1999/xlink" x="0px" y="0px"
	 viewBox="0 0 101.2 101.2" style="enable-background:new 0 0 101.2 101.2;" xml:space="preserve">
<style type="text/css">
	.st0{fill:#0081C9;stroke:#E78F00;stroke-width:10;stroke-miterlimit:10;}
	.st1{fill:#0081C9;stroke:#FFFFFF;stroke-width:0.69;stroke-miterlimit:10;}
	.st2{fill:#FFFFFF;}
</style>
<circle class="st0" cx="50.6" cy="50.6" r="45.6"/>
<rect x="20" y="26.4" transform="matrix(0.4077 -0.9131 0.9131 0.4077 -15.3344 75.9052)" class="st1" width="61.7" height="46.7"/>
<rect x="19.7" y="27.6" transform="matrix(0.199 -0.98 0.98 0.199 -9.4541 90.4063)" class="st1" width="61.7" height="46.7"/>
<rect x="27.1" y="20.6" class="st1" width="46.7" height="61.7"/>
<path class="st2" d="M32,28.6c1.3,3.4,2.8,6.6,3.3,10.2l0.5-0.5l-1.6-0.9c-0.2-0.2-0.4-0.2-0.6,0c-2,1.8,1.6,3.2,3.1,3.4L36.6,40
	c-0.9,0.8-3.7-0.2-3.8,1.6c0,0.5,0.3,1,0.7,1.2c1.4,0.8,3.2-0.9,3.7,1.6c0.1,0.2,0.3,0.4,0.5,0.3c1.7-0.6,3.5-1,5.3-1
	c0.2,0,0.4-0.2,0.4-0.4c0,0,0-0.1,0-0.1c-0.4-2.9,0.3-5.8,2.1-8.1c0.7-1,2.5-2.1,2.5-3.5c0.1-1.3-0.8-2.4-2.1-2.7
	c-0.2,0-0.3,0.1-0.4,0.2c-0.7,1.1,0.9,2.6,1.6,3.3c0.4,0.4,1-0.2,0.6-0.6c-2.4-2.1-0.1-1.4-1.5,0.9c-0.8,1.4-2,2.5-2.8,4
	c-0.6,1.1-0.9,2.4-1.1,3.7c-0.2,2.2,0.6,2.1-1.7,2.7c-0.7,0.2-1.5,0.4-2.2,0.5c-1.2-0.3-0.1-0.2-0.9-0.8c-0.5-0.4-0.6-0.6-1.3-0.8
	c-0.2,0-2.8,0.5-2.4-0.5c0.1-0.2,1.7-0.1,1.9-0.2c0.5-0.1,1-0.2,1.4-0.6c0.2-0.2,0.2-0.4,0-0.6c-0.1-0.1-0.1-0.1-0.2-0.1
	c-0.9-0.1-1.8-0.4-2.6-0.9c-1.1-1,0.9,0,1.2,0.1s0.6-0.2,0.5-0.5c-0.5-3.6-2.1-6.8-3.4-10.2C32.7,27.9,31.8,28.1,32,28.6L32,28.6z"
	/>
<path class="st2" d="M45.8,28.9c-1.6,1.1-3.3,2.1-4.9,3.3c-0.9,0.7-0.8,1.2-1.8,0.5c-0.6-0.7-1-1.6-1.2-2.5
	c-0.7-1.8-1.4-4.8-3.9-4.6c-1,0.1-2.8,1.5-1.8,2.7c1,1.2,3.1-0.8,3.8-1.5c0.3-0.4-0.2-1-0.6-0.6S32.9,27.9,34,27
	c0.1-0.7,0.5-0.8,1-0.2c0.4,0.1,0.7,0.3,0.9,0.7c0.4,0.7,0.8,1.4,1,2.2c0.5,1.7,1.4,3.2,2.6,4.6c0.2,0.2,0.4,0.2,0.6,0
	c1.7-2,4.2-3.1,6.3-4.6C46.8,29.3,46.3,28.6,45.8,28.9L45.8,28.9z"/>
<path class="st2" d="M37.5,44.5c-1.3-0.8-4-2.4-5.2-0.7c-0.6,0.7-0.5,1.7,0.2,2.4c0.9,0.7,2.2,0.7,3,1.4c0.4,0.3,1-0.2,0.6-0.6
	c-0.5-0.4-1.2-0.7-1.8-0.9c-0.8-0.2-1.9-0.5-1.3-1.6c0.8-1.4,3.3,0.2,4.2,0.8C37.5,45.6,38,44.8,37.5,44.5L37.5,44.5z"/>
<path class="st2" d="M35.8,47.4c-1.7,0-4.7-0.7-5.3,1.5c-0.5,2,1.8,1.7,3,1.5c0.5-0.1,0.3-0.9-0.2-0.8c-0.5,0.1-1,0.1-1.4,0.2
	c-0.8,0-0.7-0.8-0.1-1.3c1-0.7,2.9-0.2,4.1-0.2c0.2,0,0.4-0.2,0.4-0.4S36,47.4,35.8,47.4L35.8,47.4z"/>
<path class="st2" d="M35.8,61.5c0-5.5,8.3-7.1,11.4-10.6c1.1-1.3,2-3,1.2-4.7c-1-2.2-3.6-1.4-5.1-3c-0.4-0.4-1,0.2-0.6,0.6
	c1.8,1.9,8.2,1.2,3.5,6.8c-1.4,1.6-3.9,2.6-5.7,3.7c-2.6,1.6-5.7,3.7-5.6,7.1c0,0.2,0.2,0.4,0.4,0.4S35.8,61.7,35.8,61.5z"/>
<path class="st2" d="M37.4,44.2c-1.3,1.3-1.8,3.2-2.9,4.7c-0.9,0.9-1.4,2.1-1.4,3.3c0,2.2,0.2,4.4,0.6,6.5c0,1.2,0.5,2.3,1.2,3.2
	c0.4,0.4,1-0.2,0.6-0.6c-1.1-1.3-1.9-7.4-1.6-9.1c0.4-2.6,1.3-2.4,2.4-4.1c0.7-1.1,0.7-2.3,1.7-3.3c0.2-0.2,0.2-0.4,0-0.6
	S37.6,44.1,37.4,44.2L37.4,44.2z"/>
<path class="st2" d="M46.7,28.7c-0.5-1.2-1-2.4-1.3-3.7c-0.1-0.3,0-0.5,0.2-0.7c0.1-0.1,0.5-0.4,0.7-0.3c0.5,0.5-0.8,0.6-1,0.6
	c-0.5-0.1-0.8,0.8-0.2,0.8c0.8,0.1,2,0,2.1-1.1c0.1-0.5-0.2-1.1-0.8-1.2c-0.2,0-0.4,0-0.5,0c-2.8,0.7-0.5,4.3,0,5.8
	C45.9,29.5,46.8,29.3,46.7,28.7L46.7,28.7z"/>
<path class="st2" d="M46.4,24.2c0.4,1.1,2.2,7.5,4.2,5.9c0.9-0.7,0.8-2.6,0.9-3.6c0-0.6,0.1-1.3,0.2-1.9c0.1-0.5,0.2-1.2,0.9-1.1
	c0.1,0,0.7,0.3,0.6,0.6s-1-0.9-1-1c-0.3-0.5-1-0.1-0.7,0.4c0.4,0.7,1,1.5,1.9,1.4c0.5,0,0.9-0.5,0.8-1c0,0,0,0,0,0
	c-0.3-0.7-0.9-1.2-1.7-1.2c-0.7,0-1.2,0.5-1.4,1.1c-0.3,0.8-0.4,1.6-0.4,2.5c0,1-0.1,1.9-0.4,2.8c-0.7,1.2-1.6-1.2-1.9-1.8
	c-0.5-1-0.8-2.1-1.2-3.1C47,23.5,46.2,23.7,46.4,24.2L46.4,24.2z"/>
<path class="st2" d="M53.2,24.4c-0.8,1.9-1.3,4.2-0.4,6.1c0.1,0.2,0.4,0.3,0.6,0.1c0,0,0.1,0,0.1-0.1c0.7-0.9,1.3-1.9,1.8-3
	c0.3-0.6,0.7-1.2,1.2-1.7c0.2-0.2,0.5-0.3,0.8-0.3c0.4,0.1,0.7,0.6,0.3,0.8s-0.8-0.3-1-0.6s-1.1,0-0.7,0.4c0.6,0.8,1.9,1.6,2.7,0.5
	c0.7-0.9-0.2-2-1.2-2.1c-2.4-0.3-3,4-4.3,5.2l0.7,0.1c-0.8-1.7-0.2-3.8,0.5-5.4C54.3,24.1,53.4,23.8,53.2,24.4L53.2,24.4z"/>
<path class="st2" d="M57.3,26.6c-0.9,1.3-1.3,3-1.2,4.6c0.1,2,2.1,2.5,2.7,4.2c0.2,0.5,1,0.3,0.8-0.2c-0.4-1.2-1.3-1.7-2-2.6
	c-1.1-1.3-0.7-4.1,0.3-5.4C58.3,26.7,57.7,26.2,57.3,26.6L57.3,26.6z"/>
<path class="st2" d="M48,45c0.4-1.2,0.8-2.4,1.2-3.5c0.8-2.1,1.7-3.2,3.8-3.7c1.3-0.3,2.6-0.7,3.9-1.2c1.3-0.5,4.6-2.1,6-1.3
	c4.6,2.8-2.8,3.4-4,3.9c-2.7,1.1-3.2,3.9-3.3,6.4c0.1,0.9,0.1,1.8,0,2.7c-0.5-0.3-1-0.6-1.6-0.8c-1.7-0.6-3.5-0.8-5.2-0.3
	c-0.5,0.1-0.3,0.9,0.2,0.8c2.3-0.5,4.8,0,6.7,1.5c0.2,0.1,0.5,0,0.6-0.2c0-0.1,0.1-0.1,0.1-0.2c0.2-2.5-0.4-5.7,1.2-7.8
	c1.8-2.3,4.1-0.8,6.1-2.1c1.3-0.9,1.5-2.7,0.6-3.9c-0.2-0.3-0.5-0.6-0.9-0.8c-2.9-1.3-6.8,1.6-9.6,2.2c-1.8,0.4-3,0.2-4.1,1.8
	c-1.3,1.8-1.7,4.2-2.4,6.2C47,45.3,47.8,45.5,48,45L48,45z"/>
<path class="st2" d="M57.1,42.7c2,0.2,2.8,1.2,3.9,2.7s2.9,2.6,2.1,4.5c-0.2,0.5,0.5,0.9,0.7,0.4c1-2.4-0.7-3.6-2.1-5.4
	s-2.3-2.9-4.6-3.1C56.6,41.8,56.6,42.6,57.1,42.7z"/>
<path class="st2" d="M59.8,42.4c0.8-0.5,2.7-1.4,3.4-0.3c0.8,1.3-1.5,1.3-2.2,1.8c-0.5,0.3,0,1.1,0.4,0.7c0.7-0.5,1.6-0.4,2.3-0.9
	c0.6-0.5,0.7-1.4,0.2-2c-0.9-1.7-3.3-0.7-4.5,0c-0.2,0.1-0.2,0.4-0.1,0.6C59.4,42.5,59.6,42.5,59.8,42.4z"/>
<path class="st2" d="M61.8,45.1c0.5-0.2,1.1-0.4,1.6-0.5c0.5-0.2,1.1,0.1,1.3,0.6c0,0.1,0.1,0.2,0.1,0.3c0,0.4-0.3,0.4-0.7,0.5
	c-0.4,0-0.9,0.2-1.2,0.3c-0.5,0.2-0.1,1,0.4,0.7s1.2-0.2,1.8-0.4c0.5-0.3,0.7-0.9,0.5-1.4c-0.2-0.8-0.8-1.4-1.6-1.5
	c-0.8,0-1.6,0.3-2.4,0.6C61,44.5,61.2,45.3,61.8,45.1z"/>
<path class="st2" d="M56.1,50c1.2,0.3,2.4,0.2,3.7,0.4c3,0.5,4.8,2.3,6.4,4.8c2.1,3.2,3,7,2.7,10.7c-0.2,2.5-0.4,6.8-1.8,9
	c-3.3,5.7-14,1.3-18.8-1c-6-3-9.8-6.4-12.8-12.4c-0.2-0.5-1-0.1-0.7,0.4c3.5,7.2,8.6,11.3,16.3,14.2c3.3,1.2,7.8,2.8,11.3,3.2
	c2.2,0.2,3.7-0.7,4.8-2.6c2.9-4.8,3.5-14.2,1.2-19.2c-1-2.2-2.1-5.9-4.2-7.2s-5.5-0.5-7.9-1C55.8,49.1,55.6,50,56.1,50L56.1,50z"/>
<path class="st2" d="M37,66.8c-0.2,2.3-1,5.9,1.5,7.2c2.1,1.2,4.9,0.2,5.2-2.3c0-0.6-0.8-0.6-0.9,0c-0.2,2.5-4,2.7-4.8,0.5
	c-0.7-1.6-0.2-3.7-0.1-5.4c0-0.2-0.2-0.4-0.4-0.4S37,66.5,37,66.8L37,66.8z"/>
<path class="st2" d="M43,53.7c0,1.3-0.8,5,0.7,5.9c0.9,0.5,2.2,0,3.1,0.3s0.8,0.3,0.9,1.2c0,0.4,0,0.8,0.1,1.1
	c0,0.6,0.1,1.2,0.2,1.8c0.2,0.5,1,0.3,0.8-0.2c-0.6-1.7,0.5-4.9-2.2-5c-1.6-0.1-2.8,0.7-2.9-1.2c-0.1-1.3,0.1-2.6,0-3.8
	c0-0.2-0.3-0.4-0.5-0.4C43.1,53.4,42.9,53.5,43,53.7L43,53.7z"/>
<path class="st2" d="M43.9,59.5c0.1,0.5,0.9,0.8,1.2,1.1c0.1,0.1,0.5,0.4,0.5,0.6s-0.9,0.4-1.1,0.4c-0.5,0.1-0.3,0.9,0.2,0.8
	c0.9-0.2,2.3-0.7,1.6-1.8c-0.2-0.4-0.5-0.7-0.9-0.9l-0.5-0.4l-0.1-0.1c-0.1-0.1,0-0.1,0,0C44.6,58.7,43.8,58.9,43.9,59.5L43.9,59.5z
	"/>
<path class="st2" d="M47.3,50c0.2,1.5-1,3.1-1.5,4.4c-0.4,0.9-1.1,2.3-0.5,3.2c0.3,0.5,1,0,0.7-0.4c-0.6-0.9,0.8-3.2,1.2-4
	c0.6-1,0.9-2.1,0.9-3.2C48.2,49.5,47.3,49.5,47.3,50z"/>
<path class="st2" d="M65,53.1c-0.2,0.8-0.9,1.4-0.9,2.2c0.1,0.6,0.2,1.1,0.3,1.7c0.1,0.9,0.3,2.3,1.4,2.5c0.6,0.1,0.5-0.8,0-0.8
	s-0.6-2-0.7-2.3c-0.1-0.6-0.4-0.9-0.1-1.5c0.3-0.5,0.5-1,0.7-1.5c0-0.2-0.1-0.5-0.4-0.5C65.2,52.8,65,52.9,65,53.1L65,53.1z"/>
<path class="st2" d="M36.1,58.6c-0.4,1.2-0.3,2.5,0.2,3.7c0.5,1.1,1.4,1.5,2.1,2.3c1.4,1.7,0.7,4.4,3.3,5c0.5,0.1,0.8-0.7,0.2-0.8
	c-2.1-0.6-1.6-3-2.7-4.5c-0.3-0.3-0.6-0.7-1-1c-1.3-1.1-1.9-2.9-1.3-4.6c0-0.2-0.1-0.5-0.4-0.5C36.4,58.3,36.2,58.4,36.1,58.6
	L36.1,58.6z"/>
<path class="st2" d="M57.5,50.8c1.9,1.3,0.7,5.7,0.8,7.6c0.1,2.4,0.4,4.7,1.1,7c0.8,3.2,1.3-1,0.3,3.8c-1.8,8.4-0.4,1.4-0.7,2.6
	c-0.2,0.6-1.1,3.4-1.2,3.5c-0.4,0.4,0.2,1,0.6,0.6c0.3-0.3,0.5-0.6,0.8-0.9c0.2-0.3,0.8-2.5,0.9-2.7s0.8-0.2,1-0.5
	c1.2-1.7,1.4-2,0.7-4.2c-0.5-1.3-1.6-2.4-2-3.8c-0.3-1.5-0.5-3-0.4-4.6c-0.1-1.5,0-2.9,0.1-4.4c0.2-2,0.3-3.5-1.4-4.8
	C57.5,49.7,57.1,50.5,57.5,50.8L57.5,50.8z"/>
<path class="st2" d="M60.8,71.2c-0.3,1-0.3,2-0.2,3c-0.1,1,0.1,1.9,0.4,2.8c0.1,0.2,0.4,0.3,0.6,0.2c0.2-0.1,0.3-0.4,0.2-0.6
	c-0.3-0.8-0.4-1.6-0.3-2.4c-0.2-0.8-0.2-1.7,0-2.5C61.7,71.1,61,70.7,60.8,71.2L60.8,71.2z"/>
<path class="st2" d="M59,62c-0.9-0.7-2.3,0.5-2.9,1.1c-0.3,0.3-0.5,0.8-0.4,1.3c0.1,0.5,0.8,1.8,0.3,2.2s0.2,1,0.6,0.6
	c0.8-0.7,0.2-1.8,0-2.6c-0.2-0.4,0-0.9,0.4-1.2c0.1-0.1,1.2-1,1.4-0.8C58.8,62.9,59.4,62.3,59,62L59,62z"/>
<path class="st2" d="M56.1,64.5c-0.5,0.4-1.2,0.6-1.8,0.7c-0.5,0.1-0.3,0.9,0.2,0.8c0.7-0.1,1.4-0.4,2-0.8
	C57,65,56.6,64.2,56.1,64.5L56.1,64.5z"/>
<path class="st2" d="M58.8,58.2c1-0.1,1.1,0.8,1.4,1.5c0.2,0.7,0.9,1.2,1.7,1.1c0.5-0.1,0.3-0.9-0.2-0.8s-0.8-1-1.1-1.5
	c-0.3-0.8-1-1.2-1.8-1.1C58.3,57.5,58.3,58.3,58.8,58.2z"/>
<path class="st2" d="M59.3,65.5c0.8,0.3,1.6,0.5,2.4,0.5c1,0.1,1.9,0.2,1.6,1.4c-0.1,0.5,0.7,0.8,0.8,0.2c0.3-0.9-0.1-1.9-1-2.3
	c0,0-0.1,0-0.1,0c-1-0.3-2.3,0-3.3-0.5c-0.2-0.1-0.5,0-0.6,0.2C59.1,65.1,59.1,65.4,59.3,65.5L59.3,65.5z"/>
</svg>
