<?xml version="1.0" encoding="utf-8"?>
<!-- Generator: Adobe Illustrator 23.0.2, SVG Export Plug-In . SVG Version: 6.00 Build 0)  -->
<svg version="1.1" id="Layer_1" xmlns="http://www.w3.org/2000/svg" xmlns:xlink="http://www.w3.org/1999/xlink" x="0px" y="0px"
	 viewBox="0 0 101.2 101.2" style="enable-background:new 0 0 101.2 101.2;" xml:space="preserve">
<style type="text/css">
	.st0{fill:#0081C9;stroke:#FFFFFF;stroke-width:10;stroke-miterlimit:10;}
	.st1{fill:#0081C9;stroke:#FFFFFF;stroke-width:1.15;stroke-miterlimit:10;}
	.st2{fill:none;stroke:#FFFFFF;stroke-width:1.15;stroke-miterlimit:10;}
</style>
<circle class="st0" cx="50.6" cy="50.6" r="45.6"/>
<rect x="32.2" y="20.3" class="st1" width="7.7" height="12.7"/>
<rect x="32.2" y="32.1" class="st1" width="7.7" height="6.8"/>
<rect x="32.2" y="38.9" class="st1" width="7.7" height="9.3"/>
<rect x="32.2" y="48.5" class="st1" width="7.7" height="3.1"/>
<rect x="32.2" y="51.9" class="st1" width="7.7" height="12.7"/>
<rect x="32.2" y="63.7" class="st1" width="7.7" height="6.8"/>
<rect x="32.2" y="70.4" class="st1" width="7.7" height="9.3"/>
<rect x="32.2" y="80" class="st1" width="7.7" height="3.1"/>
<rect x="45.1" y="32.9" class="st1" width="7.7" height="10.1"/>
<rect x="45.1" y="42.3" class="st1" width="7.7" height="5.4"/>
<rect x="45.1" y="47.7" class="st1" width="7.7" height="7.4"/>
<rect x="45.1" y="55.4" class="st1" width="7.7" height="2.5"/>
<rect x="45.1" y="58.1" class="st1" width="7.7" height="10.1"/>
<rect x="45.1" y="67.5" class="st1" width="7.7" height="5.4"/>
<rect x="45.1" y="73" class="st1" width="7.7" height="7.4"/>
<rect x="45.1" y="80.7" class="st1" width="7.7" height="2.5"/>
<rect x="57.6" y="72.1" class="st1" width="7.7" height="11.1"/>
<rect x="57.6" y="66.9" class="st1" width="7.7" height="5.9"/>
<rect x="57.6" y="58.8" class="st1" width="7.7" height="8.1"/>
<rect x="57.6" y="55.8" class="st1" width="7.7" height="2.7"/>
<rect x="57.6" y="44.5" class="st1" width="7.7" height="11.1"/>
<rect x="57.6" y="39.3" class="st1" width="7.7" height="5.9"/>
<rect x="57.6" y="31.2" class="st1" width="7.7" height="8.1"/>
<rect x="57.6" y="28.2" class="st1" width="7.7" height="2.7"/>
<rect x="70.2" y="48.6" class="st1" width="7.7" height="7"/>
<rect x="70.2" y="55.1" class="st1" width="7.7" height="3.7"/>
<rect x="70.2" y="58.8" class="st1" width="7.7" height="5.1"/>
<rect x="70.2" y="64.1" class="st1" width="7.7" height="1.7"/>
<rect x="70.2" y="66" class="st1" width="7.7" height="7"/>
<rect x="70.2" y="72.4" class="st1" width="7.7" height="3.7"/>
<rect x="70.2" y="76.2" class="st1" width="7.7" height="5.1"/>
<rect x="70.2" y="81.4" class="st1" width="7.7" height="1.7"/>
<line class="st2" x1="81" y1="83.1" x2="24.2" y2="83.1"/>
<line class="st2" x1="24.2" y1="83.1" x2="24.2" y2="16"/>
<line class="st2" x1="24.4" y1="16" x2="21.6" y2="16"/>
<line class="st2" x1="24.4" y1="29.3" x2="21.6" y2="29.3"/>
<line class="st2" x1="24.4" y1="42.6" x2="21.6" y2="42.6"/>
<line class="st2" x1="24.4" y1="55.9" x2="21.6" y2="55.9"/>
<line class="st2" x1="24.1" y1="69.8" x2="21.3" y2="69.8"/>
<line class="st2" x1="24.1" y1="83.1" x2="21.3" y2="83.1"/>
</svg>
