<?xml version="1.0" encoding="utf-8"?><svg xmlns="http://www.w3.org/2000/svg" viewBox="0 0 83.58 15.76"><defs><style>.cls-1{fill:#fff;}</style></defs><title>logo_header_Tufts</title><g id="Layer_2" data-name="Layer 2"><g id="Layer_1-2" data-name="Layer 1"><path class="cls-1" d="M5,13.64V2.84H1.86V6.26H0V.59H13.23V4.7H11.37V2.84H8.27v10.8h2.25V15.5H2.66V13.64Z"/><path class="cls-1" d="M23.2,13.69V15.5H19.33V14.32a5.89,5.89,0,0,1-3.46,1.36,3.13,3.13,0,0,1-1.74-.46A2.17,2.17,0,0,1,13.21,14,8.66,8.66,0,0,1,13,11.71V7.32H11.24V5.51h4.34v5.94a2.16,2.16,0,0,0,.16,1.11,1.6,1.6,0,0,0,.65.86,1.76,1.76,0,0,0,1.19.11,5.06,5.06,0,0,0,1.75-1V7.32H17.48V5.51h4.67v8.18Z"/><path class="cls-1" d="M25.58,13.69V7.31H24.15V5.51h1.43V3.63A3.53,3.53,0,0,1,26.82,1,3,3,0,0,1,28.73.26a5,5,0,0,1,3.86,1.39l-2,1.41c-.35-.86-1.1-1.13-1.67-.65a1.47,1.47,0,0,0-.62,1.22V5.51h1.51v1.8H28.35v6.38h1.7V15.5h-6V13.69Z"/><path class="cls-1" d="M30.56,7.37V5.55H32v-2l2.63-1.87V5.55h1.94V7.37H34.62V12a4.62,4.62,0,0,0,.14,1.49c.09.19.31.29.68.29a2.94,2.94,0,0,0,1.12-.22V15.4a7.39,7.39,0,0,1-1.58.28,3.51,3.51,0,0,1-1.66-.17c-.52-.19-1.19-.33-1.29-1.09a23.25,23.25,0,0,1-.1-2.33V7.37Z"/><path class="cls-1" d="M37.54,15.5V12.13h1.84v.16a1.71,1.71,0,0,0,.79,1.2,2.93,2.93,0,0,0,1.65.47,3.2,3.2,0,0,0,1.6-.34,1.07,1.07,0,0,0,.59-1,.91.91,0,0,0-.49-.86,6.68,6.68,0,0,0-2-.52,7.82,7.82,0,0,1-3.33-1.1,2.8,2.8,0,0,1-1-2.15,2.7,2.7,0,0,1,1.37-2.19A4.82,4.82,0,0,1,41.21,5a5.12,5.12,0,0,1,2.55.6V5.13h1.83V7.92H43.76a4.33,4.33,0,0,0-2.42-1.26A2.18,2.18,0,0,0,40,7a1.07,1.07,0,0,0-.53.93.81.81,0,0,0,.49.81A10,10,0,0,0,42,9.21a11.2,11.2,0,0,1,2.31.55,2.85,2.85,0,0,1,1.29,1.05,2.92,2.92,0,0,1,.51,1.71A2.71,2.71,0,0,1,45,14.82a5.32,5.32,0,0,1-5.64.1v.58Z"/><path class="cls-1" d="M48.69,7l1.05-.15H50l1,.15V7.4H48.69Zm0-6.29H50v.56H49.9l-1.21-.15Zm.9,0H50l.09,3V7.4h-.52Zm0,0h.94L53,6.64h-.34L54.9.7h.54l-2.6,6.7h-.5ZM54.15,7l1.2-.15h.22L56.88,7V7.4H54.15ZM55,4.31V.7h1c0,1,0,2.05,0,3.1v.49c0,1,0,2.08,0,3.11H55C55,6.38,55,5.34,55,4.31ZM55.46.7h1.41v.41l-1.3.15h-.11Z"/><path class="cls-1" d="M61.73,4.44a2.07,2.07,0,0,1-.06.56H58V4.57h2.35c.48,0,.59-.23.59-.51A1.09,1.09,0,0,0,59.82,3c-.63,0-1.35.54-1.35,2,0,1.27.64,1.94,1.63,1.94a1.75,1.75,0,0,0,1.39-.7l.23.19A2,2,0,0,1,59.8,7.53a2.19,2.19,0,0,1-2.23-2.46,2.37,2.37,0,0,1,2.3-2.55A1.79,1.79,0,0,1,61.73,4.44Z"/><path class="cls-1" d="M65,7c.51,0,.86-.23,1.31-.81l.1.26a1.81,1.81,0,0,1-1.66,1.12c-1.21,0-2-1-2-2.47a2.26,2.26,0,0,1,2.13-2.54,1.81,1.81,0,0,1,1.59,1l-.1.25A2,2,0,0,0,65,3.08c-.75,0-1.39.6-1.39,2S64.17,7,65,7ZM67.74,7V7.4l-1.55.1-.11-1v-3l0-.13V.9L65.26.8V.45L66.83,0,67,.08l0,1.42V7.4l-.19-.53Z"/><path class="cls-1" d="M69,7.4c0-.45,0-1.49,0-2.11V4.82c0-.55,0-.86,0-1.26l-.81-.09V3.12l1.55-.6.15.1,0,1.35V5.29c0,.62,0,1.66,0,2.11ZM70.57,7V7.4H68.25V7l1.09-.2h.23ZM68.75.77a.68.68,0,0,1,1.35,0,.68.68,0,0,1-1.35,0Z"/><path class="cls-1" d="M72.18,4.94c0,1.25.66,1.94,1.6,1.94a1.59,1.59,0,0,0,1.38-.77l.25.13a1.81,1.81,0,0,1-1.86,1.29A2.22,2.22,0,0,1,71.3,5a2.35,2.35,0,0,1,2.32-2.51,1.69,1.69,0,0,1,1.76,1.3.42.42,0,0,1-.46.38c-.33,0-.47-.21-.54-.48l-.24-.87.47.37a2.05,2.05,0,0,0-1-.25C72.8,3,72.18,3.65,72.18,4.94Z"/><path class="cls-1" d="M77.87,4.76a14.64,14.64,0,0,1,1.56-.42v.37a8.71,8.71,0,0,0-1.34.4c-.88.34-1,.72-1,1a.7.7,0,0,0,.8.74c.34,0,.54-.13,1.15-.57l.21-.16.14.21-.3.3c-.59.6-.93.88-1.55.88a1.23,1.23,0,0,1-1.34-1.26C76.21,5.71,76.52,5.25,77.87,4.76ZM79,6.48V4.19c0-1-.27-1.22-.93-1.22a2.33,2.33,0,0,0-.9.18l.41-.32-.25.85c-.08.32-.24.48-.52.48a.41.41,0,0,1-.46-.4,1.8,1.8,0,0,1,2-1.24c1,0,1.54.47,1.54,1.74V6.38c0,.44.14.6.37.6a.49.49,0,0,0,.38-.22l.2.21a.94.94,0,0,1-.87.53A.92.92,0,0,1,79,6.48Z"/><path class="cls-1" d="M82.67,0l.14.08,0,1.42V5.29c0,.71,0,1.41,0,2.11h-.91c0-.7,0-1.4,0-2.11V.9L81.1.8V.45Zm.91,7V7.4H81.11V7l1.12-.2h.23Z"/><path class="cls-1" d="M54,14.62v.55l-.62.14.25-1.48h.62l0,1.45a4.15,4.15,0,0,1-2,.48,3.28,3.28,0,0,1-3.39-3.5,3.34,3.34,0,0,1,3.38-3.5,3.83,3.83,0,0,1,1.93.49l0,1.45h-.61l-.26-1.48.62.14V10a2.3,2.3,0,0,0-1.59-.69c-1.34,0-2.42,1-2.42,3s1,3,2.35,3A2.7,2.7,0,0,0,54,14.62Z"/><path class="cls-1" d="M59.22,12.66a2.07,2.07,0,0,1-.07.56h-3.7v-.43H57.8c.48,0,.59-.23.59-.52a1.09,1.09,0,0,0-1.08-1.08c-.63,0-1.35.53-1.35,2,0,1.27.64,1.95,1.62,1.95A1.7,1.7,0,0,0,59,14.39l.24.19a2,2,0,0,1-1.92,1.16,2.19,2.19,0,0,1-2.23-2.45,2.38,2.38,0,0,1,2.3-2.56A1.8,1.8,0,0,1,59.22,12.66Z"/><path class="cls-1" d="M60.85,15.61c0-.45,0-1.48,0-2.1V13c0-.56,0-.86,0-1.26l-.79-.09v-.35l1.39-.61.15.1L61.72,12v1.52c0,.62,0,1.65,0,2.1Zm1.59-.35v.35H60.12v-.35l1.09-.2h.23Zm2.32-2.68v.93c0,.64,0,1.65,0,2.1h-.9c0-.45,0-1.46,0-2.1v-.85c0-.91-.23-1.21-.82-1.21a2.17,2.17,0,0,0-1.47.69h-.21v-.46h.52l-.43.19a2.66,2.66,0,0,1,2-1.14C64.34,10.73,64.76,11.27,64.76,12.58Zm-.28,2.48,1,.2v.35H63.16v-.35l1.09-.2Z"/><path class="cls-1" d="M68.05,15.23a1.09,1.09,0,0,0,.67-.28l.23.27a1.41,1.41,0,0,1-1.17.52,1,1,0,0,1-1.14-1.14c0-.25,0-.46,0-.85V11.39h-.83V11l1.24-.15-.41.33L67,9.5h.6l-.08,1.76v3.23C67.49,15,67.71,15.23,68.05,15.23Zm.81-4.36v.52H67.07v-.52Z"/><path class="cls-1" d="M73.59,12.66a2.07,2.07,0,0,1-.07.56h-3.7v-.43h2.35c.48,0,.59-.23.59-.52a1.09,1.09,0,0,0-1.08-1.08c-.63,0-1.35.53-1.35,2,0,1.27.64,1.95,1.62,1.95a1.7,1.7,0,0,0,1.39-.71l.24.19a2,2,0,0,1-1.92,1.16,2.19,2.19,0,0,1-2.23-2.45,2.38,2.38,0,0,1,2.3-2.56A1.8,1.8,0,0,1,73.59,12.66Z"/><path class="cls-1" d="M75.24,13.51V13c0-.55,0-.85,0-1.25l-.79-.09v-.35l1.4-.61.15.1.12,1.25v1.43c0,.62,0,1.65,0,2.1h-.91C75.23,15.16,75.24,14.13,75.24,13.51Zm-.74,1.75,1.1-.2h.24l1.1.2v.35H74.5Zm1.17-3.1h.58l-.24.08c.31-.94.92-1.51,1.51-1.51a.82.82,0,0,1,.72.37c0,.47-.18.73-.58.73a.88.88,0,0,1-.61-.25l-.28-.24.49-.09a2.37,2.37,0,0,0-1.19,1.58h-.4Z"/></g></g></svg>