<?xml version="1.0" encoding="utf-8"?><svg xmlns="http://www.w3.org/2000/svg" viewBox="0 0 192.49 36.31"><defs><style>.cls-1{fill:#4892cd;}.cls-2{fill:#023761;}</style></defs><title>logo_footer_Tufts</title><g id="Layer_2" data-name="Layer 2"><g id="Layer_1-2" data-name="Layer 1"><path class="cls-1" d="M11.45,31.41V6.54H4.29v7.88H0V1.36H30.48v9.46H26.19V6.54H19.06V31.41h5.18v4.3H6.13v-4.3Z"/><path class="cls-1" d="M53.42,31.54v4.17h-8.9V33q-4.17,3.14-8,3.13a7.08,7.08,0,0,1-4-1.05,5,5,0,0,1-2.11-2.71A19.65,19.65,0,0,1,29.91,27V16.85h-4V12.68h10v13.7a5.09,5.09,0,0,0,.37,2.55,3.75,3.75,0,0,0,1.5,2,4,4,0,0,0,2.74.26,11.47,11.47,0,0,0,4-2.24V16.85H40.25V12.68H51V31.54Z"/><path class="cls-1" d="M58.92,31.54V16.83H55.63V12.69h3.29V8.36a8,8,0,0,1,2.84-6A6.82,6.82,0,0,1,66.17.61a11.6,11.6,0,0,1,8.89,3.18l-4.5,3.26c-.81-2-2.53-2.6-3.85-1.5a3.39,3.39,0,0,0-1.42,2.81v4.33h3.48v4.14H65.29V31.54h3.93v4.17H55.41V31.54Z"/><path class="cls-1" d="M70.37,17V12.79h3.3V8.13l6.07-4.3v9H84.2V17H79.74V27.59A10.81,10.81,0,0,0,80.05,31c.21.44.73.65,1.56.65a7.08,7.08,0,0,0,2.59-.49v4.27a15.46,15.46,0,0,1-3.64.64,8,8,0,0,1-3.82-.37c-1.21-.44-2.75-.77-3-2.52a49,49,0,0,1-.24-5.38V17Z"/><path class="cls-1" d="M86.45,35.71V27.94h4.24v.36a3.92,3.92,0,0,0,1.83,2.77,6.65,6.65,0,0,0,3.8,1.08,7.32,7.32,0,0,0,3.67-.79,2.43,2.43,0,0,0,1.37-2.19,2.13,2.13,0,0,0-1.14-2A15.25,15.25,0,0,0,95.72,26c-3.32-.55-6.23-1.33-7.68-2.54a6.45,6.45,0,0,1-2.41-4.94c-.11-2,1.5-4,3.16-5.05a11.13,11.13,0,0,1,6.11-2,11.8,11.8,0,0,1,5.89,1.39v-1H105v6.43h-4.22s-2.57-2.74-5.58-2.9a5,5,0,0,0-3.08.8,2.46,2.46,0,0,0-1.21,2.14A1.87,1.87,0,0,0,92,20.14a21.78,21.78,0,0,0,4.78,1.07,25.52,25.52,0,0,1,5.31,1.27,6.75,6.75,0,0,1,4.16,6.36,6.32,6.32,0,0,1-2.58,5.3,10.75,10.75,0,0,1-6.7,2,10.59,10.59,0,0,1-6.3-1.74v1.35Z"/><path class="cls-2" d="M112.12,16.09l2.44-.34H115l2.26.34V17h-5.17Zm0-14.48h3V2.9h-.28l-2.77-.35Zm2.07,0h1l.21,6.93V17h-1.19Zm0,0h2.15L122,15.29h-.78l5.26-13.68h1.24L121.7,17h-1.17ZM124.7,16.09l2.78-.34H128l3,.34V17H124.7Zm2-6.17V1.61h2.2c-.07,2.33-.07,4.73-.07,7.14V9.89c0,2.37,0,4.77.07,7.14h-2.27C126.69,14.7,126.69,12.31,126.69,9.92Zm1-8.31H131v.94l-3,.35h-.24Z"/><path class="cls-2" d="M142.18,10.22a4.74,4.74,0,0,1-.16,1.29h-8.53v-1h5.41c1.11,0,1.36-.52,1.36-1.19a2.51,2.51,0,0,0-2.5-2.5c-1.44,0-3.1,1.23-3.1,4.53,0,2.92,1.47,4.47,3.74,4.47a4,4,0,0,0,3.2-1.61l.55.43a4.69,4.69,0,0,1-4.43,2.67c-3.1,0-5.13-2.14-5.13-5.66S135,5.8,137.88,5.8A4.14,4.14,0,0,1,142.18,10.22Z"/><path class="cls-2" d="M149.61,16c1.18,0,2-.53,3-1.88l.21.61c-.89,1.62-2,2.57-3.8,2.57-2.8,0-4.7-2.31-4.7-5.67,0-3.52,2.1-5.86,4.92-5.86,1.35,0,2.47.56,3.66,2.37l-.23.59c-1.31-1.28-2.21-1.66-3.09-1.66-1.71,0-3.19,1.38-3.19,4.51S147.77,16,149.61,16Zm6.4.18V17l-3.58.23-.24-2.33V8.13l.08-.3V2.08l-2-.23V1l3.6-1,.32.19-.09,3.27V17l-.44-1.2Z"/><path class="cls-2" d="M158.89,17c.05-1,.07-3.41.07-4.84V11.11c0-1.27,0-2-.07-2.9L157,8V7.19l3.56-1.39.34.23-.07,3.12v3c0,1.43,0,3.81.07,4.84Zm3.63-.82V17h-5.35v-.82l2.51-.46h.54ZM158.34,1.77a1.55,1.55,0,0,1,3.09,0,1.55,1.55,0,0,1-3.09,0Z"/><path class="cls-2" d="M166.23,11.37c0,2.89,1.53,4.47,3.68,4.47a3.68,3.68,0,0,0,3.19-1.77l.57.3a4.17,4.17,0,0,1-4.29,3c-3.15,0-5.17-2.2-5.17-5.74s2.55-5.79,5.33-5.79a3.94,3.94,0,0,1,4.07,3,1,1,0,0,1-1.07.87,1.22,1.22,0,0,1-1.25-1.1l-.55-2,1.09.86a4.77,4.77,0,0,0-2.2-.57C167.66,6.84,166.23,8.41,166.23,11.37Z"/><path class="cls-2" d="M179.34,11a26.61,26.61,0,0,1,3.58-1v.83a21.76,21.76,0,0,0-3.08.92c-2,.79-2.27,1.66-2.27,2.35a1.61,1.61,0,0,0,1.83,1.71c.79,0,1.24-.3,2.66-1.31l.48-.36.32.47-.68.69c-1.37,1.38-2.15,2-3.57,2a2.81,2.81,0,0,1-3.09-2.88C175.52,13.14,176.23,12.1,179.34,11Zm2.6,4V9.64c0-2.24-.63-2.8-2.15-2.8a5.5,5.5,0,0,0-2.08.41l1-.72-.57,2c-.2.71-.57,1.1-1.21,1.1a1,1,0,0,1-1.06-.94c.42-1.76,2.13-2.85,4.49-2.85s3.56,1.09,3.56,4v4.9c0,1,.32,1.37.84,1.37a1.12,1.12,0,0,0,.88-.51l.47.5a2.16,2.16,0,0,1-2,1.21A2.11,2.11,0,0,1,181.94,14.93Z"/><path class="cls-2" d="M190.38,0l.33.19-.09,3.27v8.73c0,1.62,0,3.23.07,4.84H188.6c.05-1.61.07-3.22.07-4.84V2.08l-1.89-.23V1Zm2.11,16.21V17h-5.7v-.82l2.58-.46h.54Z"/><path class="cls-2" d="M124.3,33.68v1.26l-1.44.33.59-3.43h1.43l-.1,3.36a9.79,9.79,0,0,1-4.66,1.11c-4.64,0-7.8-3.32-7.8-8.06a7.69,7.69,0,0,1,7.79-8.06,8.91,8.91,0,0,1,4.45,1.1l.09,3.36h-1.43l-.58-3.43,1.43.33V23a5.31,5.31,0,0,0-3.67-1.6c-3.08,0-5.57,2.39-5.57,6.9s2.25,6.89,5.41,6.89A6.33,6.33,0,0,0,124.3,33.68Z"/><path class="cls-2" d="M136.39,29.15a4.66,4.66,0,0,1-.16,1.28H127.7v-1h5.42c1.1,0,1.36-.52,1.36-1.19a2.51,2.51,0,0,0-2.5-2.49c-1.45,0-3.1,1.23-3.1,4.52,0,2.92,1.47,4.47,3.74,4.47a4,4,0,0,0,3.2-1.61l.54.43a4.69,4.69,0,0,1-4.42,2.68c-3.1,0-5.13-2.15-5.13-5.66s2.43-5.88,5.29-5.88A4.14,4.14,0,0,1,136.39,29.15Z"/><path class="cls-2" d="M140.13,36c0-1,.07-3.41.07-4.84V30c0-1.27,0-2-.07-2.89l-1.82-.21v-.81l3.21-1.39.35.23.27,2.67v3.5c0,1.43,0,3.8.07,4.84Zm3.66-.83V36h-5.34v-.83l2.51-.46h.54ZM149.15,29v2.15c0,1.47,0,3.8.06,4.84h-2.08c0-1,.07-3.37.07-4.84v-2c0-2.1-.55-2.78-1.9-2.78A5,5,0,0,0,141.92,28h-.5V26.9h1.2l-1,.43a6.2,6.2,0,0,1,4.57-2.61C148.18,24.72,149.15,26,149.15,29Zm-.65,5.7,2.3.46V36h-5.35v-.83l2.51-.46Z"/><path class="cls-2" d="M156.72,35.06a2.58,2.58,0,0,0,1.55-.63l.53.62a3.28,3.28,0,0,1-2.71,1.21,2.36,2.36,0,0,1-2.62-2.64c0-.57,0-1.06,0-2V26.24h-1.91v-1l2.85-.37-.94.77.73-3.75h1.4l-.18,4v7.45C155.44,34.56,156,35.06,156.72,35.06Zm1.86-10v1.22h-4.11V25Z"/><path class="cls-2" d="M169.48,29.15a4.66,4.66,0,0,1-.16,1.28h-8.53v-1h5.42c1.1,0,1.36-.52,1.36-1.19a2.51,2.51,0,0,0-2.5-2.49c-1.45,0-3.1,1.23-3.1,4.52,0,2.92,1.47,4.47,3.74,4.47a4,4,0,0,0,3.2-1.61l.54.43A4.69,4.69,0,0,1,165,36.26c-3.11,0-5.13-2.15-5.13-5.66s2.43-5.88,5.29-5.88A4.14,4.14,0,0,1,169.48,29.15Z"/><path class="cls-2" d="M173.29,31.12V30c0-1.27,0-2-.07-2.89l-1.82-.21v-.81l3.21-1.39L175,25l.27,2.88v3.29c0,1.43,0,3.8.07,4.84h-2.08C173.26,34.92,173.29,32.55,173.29,31.12Zm-1.71,4,2.52-.46h.57l2.52.46V36h-5.61ZM174.27,28h1.34l-.57.19c.72-2.18,2.14-3.48,3.5-3.48a1.94,1.94,0,0,1,1.66.84c0,1.09-.44,1.69-1.36,1.69a2.09,2.09,0,0,1-1.4-.58l-.63-.55,1.12-.2a5.5,5.5,0,0,0-2.74,3.64h-.92Z"/></g></g></svg>