<?xml version="1.0" encoding="utf-8"?>
<!-- Generator: Adobe Illustrator 23.0.2, SVG Export Plug-In . SVG Version: 6.00 Build 0)  -->
<svg version="1.1" id="Layer_1" xmlns="http://www.w3.org/2000/svg" xmlns:xlink="http://www.w3.org/1999/xlink" x="0px" y="0px"
	 viewBox="0 0 921.6 353.1" style="enable-background:new 0 0 921.6 353.1;" xml:space="preserve">
<style type="text/css">
	.st0{fill:#0084C8;}
	.st1{fill:#0D2F53;}
	.st2{fill:#0081C9;}
</style>
<title>PACE_logo</title>
<g>
	<g id="Layer_1-2">
		<path class="st0" d="M16.4,185.5L16.4,185.5c9.1,0,16.4,7.3,16.4,16.4v51.2c0,9.1-7.3,16.4-16.4,16.4l0,0
			c-9.1,0-16.4-7.3-16.4-16.4v-51.2C0,192.8,7.3,185.5,16.4,185.5z"/>
		<path class="st1" d="M55.1,166.5L55.1,166.5c9.1,0,16.4,7.3,16.4,16.4v95.5c0,9.1-7.3,16.4-16.4,16.4l0,0
			c-9.1,0-16.4-7.3-16.4-16.4v-95.5C38.7,173.8,46,166.5,55.1,166.5z"/>
		<path class="st0" d="M93.4,177L93.4,177c9.1,0,16.4,7.3,16.4,16.4v59.7c0,9.1-7.3,16.4-16.4,16.4l0,0c-9.1,0-16.4-7.3-16.4-16.4
			v-59.7C77,184.4,84.3,177,93.4,177z"/>
		<path class="st1" d="M131.7,140L131.7,140c9.1,0,16.4,7.3,16.4,16.4v122c0,9.1-7.3,16.4-16.4,16.4h0c-9.1,0-16.4-7.3-16.4-16.4
			v-122C115.3,147.3,122.7,140,131.7,140z"/>
		<path class="st0" d="M169.2,159.7L169.2,159.7c9.1,0,16.4,7.3,16.4,16.4v77c0,9.1-7.3,16.4-16.4,16.4l0,0
			c-9.1,0-16.4-7.3-16.4-16.4v-77C152.8,167.1,160.2,159.7,169.2,159.7z"/>
		<path class="st1" d="M208.7,103.4L208.7,103.4c9.1,0,16.4,7.3,16.4,16.4v158.6c0,9.1-7.3,16.4-16.4,16.4l0,0
			c-9.1,0-16.4-7.3-16.4-16.4V119.8C192.3,110.8,199.7,103.4,208.7,103.4z"/>
		<path class="st0" d="M246.6,136.7L246.6,136.7c9.1,0,16.4,7.3,16.4,16.4v100c0,9.1-7.3,16.4-16.4,16.4l0,0
			c-9.1,0-16.4-7.3-16.4-16.4v-100C230.2,144,237.5,136.7,246.6,136.7z"/>
		<path class="st1" d="M284.6,57.3L284.6,57.3c9.1,0,16.4,7.3,16.4,16.4v204.7c0,9.1-7.3,16.4-16.4,16.4l0,0
			c-9.1,0-16.4-7.3-16.4-16.4V73.7C268.2,64.7,275.5,57.3,284.6,57.3z"/>
		<path class="st0" d="M322.8,105.6L322.8,105.6c9.1,0,16.4,7.3,16.4,16.4v131.1c0,9.1-7.3,16.4-16.4,16.4l0,0
			c-9.1,0-16.4-7.3-16.4-16.4V122C306.4,112.9,313.7,105.6,322.8,105.6z"/>
		<path class="st1" d="M360.9,0L360.9,0c9.1,0,16.4,7.3,16.4,16.4V279c0,9.1-7.3,16.4-16.4,16.4l0,0c-9.1,0-16.4-7.3-16.4-16.4V16.4
			C344.5,7.3,351.8,0,360.9,0z"/>
		<path class="st2" d="M511.6,163.2c9.5,8.4,14.2,20.3,14.2,35.7c0,16.2-4.8,28.8-14.3,37.7c-9.6,9-23,13.4-40.3,13.4h-27.1v39.8
			h-30.8V150.6h57.9C488.7,150.6,502.1,154.8,511.6,163.2z M489.7,217.7c4.6-4.1,6.9-10,6.9-17.8c0-7.7-2.3-13.5-6.9-17.4
			s-11.3-5.9-20-5.9h-25.5v47.2h25.5C478.4,223.8,485.1,221.8,489.7,217.7z"/>
		<path class="st2" d="M636.6,289.9l-10.7-27.1h-63.2L552,289.9h-31.8l59.3-139.3h31.8l58.3,139.3H636.6z M572.9,237.5H616
			l-21.5-54.1L572.9,237.5z"/>
		<path class="st2" d="M762.5,180.7c-5.8-3.1-12.4-4.8-19-4.9c-7.4-0.1-14.7,1.9-21.1,5.8c-6.3,3.8-11.5,9.2-15,15.7
			c-3.7,6.8-5.6,14.4-5.5,22.1c-0.1,7.7,1.8,15.4,5.5,22.2c3.5,6.6,8.7,12.1,15,15.9c6.3,3.9,13.6,5.9,21.1,5.9
			c6.5-0.1,12.8-1.6,18.6-4.5c6.3-3,12-7,16.9-12l18.1,20.1c-7.3,7.7-16,13.9-25.7,18.3c-9.2,4.4-19.3,6.7-29.5,6.8
			c-12.8,0.2-25.4-3.1-36.5-9.5c-10.8-6.2-19.7-15.2-25.7-26c-6.3-11.2-9.5-23.9-9.4-36.8c-0.2-12.8,3.1-25.4,9.5-36.4
			c6.3-10.8,15.3-19.6,26.2-25.7c11.3-6.3,24.1-9.5,37-9.4c10.1,0,20,2.2,29.2,6.3c9.3,3.9,17.6,9.7,24.6,17l-18,22.5
			C774.5,188.6,768.9,184,762.5,180.7z"/>
		<path class="st2" d="M815.5,150.6h103.9v26.1h-73.1v30.2H912V233h-65.7v30.9h75.3v26.1H815.5V150.6z"/>
		<path class="st1" d="M0.2,326h17.2v3.6h-6.6v17.5H6.8v-17.5H0.2V326z"/>
		<path class="st1" d="M33.2,332.5c1.1,1.2,1.7,2.9,1.6,4.5v10h-3.9v-8.9c0-1-0.3-1.9-1-2.7c-0.7-0.7-1.6-1-2.6-1
			c-1.2,0-2.3,0.4-3.1,1.3c-0.8,0.9-1.2,2.1-1.1,3.4v7.9h-3.9v-22.3H23v9.3c1.1-2.1,3-3.2,5.8-3.2C30.4,330.8,32,331.4,33.2,332.5z"
			/>
		<path class="st1" d="M52,333.1c1.4,1.7,2.1,3.9,1.9,6.2c0,0.5,0,0.9,0,1.2H42c0.4,2.2,2.4,3.8,4.6,3.7c0.8,0,1.6-0.2,2.4-0.5
			c0.8-0.3,1.4-0.8,2-1.3l2.1,2.2c-0.8,0.9-1.8,1.6-2.9,2c-1.2,0.5-2.5,0.7-3.8,0.7c-1.5,0-3-0.3-4.3-1c-1.2-0.7-2.2-1.7-2.9-2.9
			c-0.7-1.3-1-2.8-1-4.3c0-1.5,0.3-3,1-4.3c0.7-1.2,1.7-2.2,2.9-2.9c1.3-0.7,2.8-1,4.2-1C48.4,330.7,50.5,331.5,52,333.1z
			 M50.4,337.8c0-1.1-0.4-2.1-1.2-2.8c-1.7-1.4-4.1-1.4-5.8,0c-0.8,0.7-1.3,1.8-1.4,2.9L50.4,337.8z"/>
		<path class="st1" d="M80.3,327.9c1.5,1.4,2.3,3.3,2.2,5.4c0.1,2.1-0.7,4.2-2.2,5.6c-1.7,1.4-3.9,2.1-6.2,2h-4.6v6.2h-4V326h8.6
			C76.4,325.9,78.5,326.6,80.3,327.9z M77.4,336.4c0.8-0.7,1.3-1.8,1.2-2.9c0.1-1.1-0.4-2.2-1.2-2.9c-1-0.7-2.3-1.1-3.5-1h-4.4v7.8
			h4.4C75.2,337.4,76.4,337.1,77.4,336.4z"/>
		<path class="st1" d="M92.1,331.7c1-0.6,2.1-0.9,3.3-0.9v3.8c-1.4-0.2-2.9,0.2-4,1.2c-1,0.9-1.5,2.2-1.5,3.5v7.8H86V331h3.9v3.1
			C90.4,333.1,91.2,332.3,92.1,331.7z"/>
		<path class="st1" d="M110.9,333.1c1.4,1.7,2.1,3.9,1.9,6.2c0,0.5,0,0.9,0,1.2H101c0.4,2.2,2.4,3.8,4.6,3.7c0.8,0,1.6-0.2,2.4-0.5
			c0.8-0.3,1.4-0.8,2-1.3l2.1,2.2c-0.8,0.9-1.8,1.6-2.9,2c-1.2,0.5-2.5,0.7-3.8,0.7c-1.5,0-3-0.3-4.3-1c-1.2-0.7-2.2-1.7-2.9-2.9
			c-1.4-2.7-1.4-5.9,0-8.5c0.7-1.2,1.7-2.2,2.9-2.9c1.3-0.7,2.8-1,4.2-1C107.3,330.8,109.4,331.5,110.9,333.1z M109.3,337.8
			c0-1.1-0.4-2.1-1.2-2.8c-0.8-0.7-1.9-1.1-2.9-1c-1.1,0-2.1,0.3-2.9,1c-0.8,0.8-1.3,1.8-1.4,2.9L109.3,337.8z"/>
		<path class="st1" d="M132.1,324.8v22.3h-3.9v-2.6c-0.6,0.9-1.3,1.6-2.2,2.1c-1,0.5-2.1,0.7-3.2,0.7c-1.4,0-2.8-0.3-4-1
			c-1.2-0.7-2.1-1.7-2.7-2.9c-1.3-2.7-1.3-5.9,0-8.6c0.6-1.2,1.5-2.2,2.7-2.9c1.2-0.7,2.6-1,4-1c1.1,0,2.2,0.2,3.2,0.7
			c0.9,0.5,1.7,1.2,2.3,2.1v-8.9L132.1,324.8z M126.9,342.6c1.7-2,1.7-5,0-7.1c-0.8-0.9-2-1.4-3.3-1.4c-1.2,0-2.4,0.5-3.3,1.4
			c-1.7,2-1.7,5,0,7.1c0.8,0.9,2,1.4,3.3,1.4C124.9,344,126.1,343.5,126.9,342.6z"/>
		<path class="st1" d="M141,324.7c0.4,0.5,0.7,1.1,0.6,1.7c0,0.6-0.2,1.2-0.6,1.6c-0.4,0.4-1,0.7-1.6,0.7c-0.6,0-1.2-0.2-1.6-0.7
			c-0.4-0.4-0.6-1-0.6-1.6c0-0.6,0.2-1.2,0.6-1.7c0.4-0.4,1-0.7,1.6-0.7C140,324.1,140.6,324.3,141,324.7z M137.5,331h3.9v16.1h-3.9
			V331z"/>
		<path class="st1" d="M153.4,334.3c-1.2,0-2.4,0.4-3.2,1.3c-0.8,0.9-1.3,2.2-1.2,3.4c-0.1,1.3,0.4,2.5,1.2,3.5
			c0.8,0.9,2,1.4,3.2,1.3c1.7,0.1,3.3-0.6,4.3-1.9l2.4,2c-0.7,1-1.7,1.9-2.9,2.4c-1.3,0.6-2.7,0.9-4.1,0.8c-1.5,0-2.9-0.3-4.2-1
			c-1.2-0.7-2.2-1.7-2.9-2.9c-1.4-2.7-1.4-5.9,0-8.6c0.7-1.2,1.7-2.2,2.9-2.9c1.3-0.7,2.8-1,4.3-1c1.3,0,2.7,0.2,3.9,0.8
			c1.1,0.5,2.1,1.2,2.8,2.2l-2.4,2.2C156.5,334.9,155,334.3,153.4,334.3z"/>
		<path class="st1" d="M173.3,346.1c-1.2,0.8-2.6,1.2-4,1.2c-1.2,0.1-2.5-0.4-3.4-1.2c-0.9-1-1.4-2.3-1.3-3.6v-7.9h-2.2v-2.9h2.3
			v-4.4h3.9v4.4h4.6v2.9h-4.6v7.2c-0.1,0.6,0.1,1.1,0.4,1.6c0.3,0.3,0.8,0.5,1.3,0.5c0.8-0.1,1.6-0.3,2.3-0.7L173.3,346.1z"/>
		<path class="st1" d="M180.2,324.7c0.4,0.5,0.7,1.1,0.6,1.7c0,0.6-0.2,1.2-0.6,1.6c-0.4,0.4-1,0.7-1.6,0.7c-0.6,0-1.2-0.2-1.6-0.7
			c-0.4-0.4-0.6-1-0.6-1.6c0-0.6,0.2-1.2,0.6-1.7c0.4-0.4,1-0.7,1.6-0.7C179.2,324.1,179.8,324.3,180.2,324.7z M176.7,331h3.9v16.1
			h-3.9V331z"/>
		<path class="st1" d="M183.3,331h4.1l4.2,12.2l4.1-12.2h3.9l-6.1,16.1h-4L183.3,331z"/>
		<path class="st1" d="M214.2,333.1c1.4,1.7,2.1,3.9,1.9,6.2c0,0.5,0,0.9,0,1.2h-11.9c0.4,2.2,2.4,3.8,4.6,3.7
			c0.8,0,1.6-0.2,2.4-0.5c0.8-0.3,1.4-0.8,2-1.3l2.1,2.2c-0.8,0.9-1.8,1.6-2.9,2c-1.2,0.5-2.5,0.7-3.8,0.7c-1.5,0-3-0.3-4.4-1
			c-1.2-0.7-2.2-1.7-2.9-2.9c-1.4-2.7-1.4-5.9,0-8.5c0.7-1.2,1.7-2.2,2.9-2.9c1.3-0.7,2.8-1,4.2-1
			C210.5,330.7,212.6,331.5,214.2,333.1z M212.5,337.8c0-1.1-0.4-2.1-1.2-2.8c-1.7-1.4-4.1-1.4-5.8,0c-0.8,0.8-1.3,1.8-1.4,2.9
			L212.5,337.8z"/>
		<path class="st1" d="M243.2,347.1l-1.9-4.5h-10.3l-1.9,4.5H225l9.3-21.1h4.2l9.1,21.1L243.2,347.1z M232.5,339.2h7.4l-3.7-8.8
			L232.5,339.2z"/>
		<path class="st1" d="M264.4,332.5c1.1,1.2,1.7,2.9,1.6,4.5v10h-4v-8.9c0-1-0.3-1.9-1-2.7c-0.7-0.7-1.6-1-2.6-1
			c-1.2,0-2.3,0.4-3.1,1.3c-0.8,0.9-1.2,2.1-1.1,3.3v7.9h-3.9v-16h3.9v3c1.1-2.1,3-3.1,5.8-3.2C261.6,330.8,263.2,331.4,264.4,332.5
			z"/>
		<path class="st1" d="M280.2,347.1v-2c-0.6,0.7-1.3,1.3-2.2,1.6c-1,0.4-2,0.6-3,0.5c-1,0-2.1-0.2-3-0.6c-0.8-0.4-1.5-1-2-1.8
			c-0.5-0.8-0.7-1.7-0.7-2.6c-0.1-1.4,0.5-2.7,1.6-3.5c1.3-0.9,2.9-1.4,4.5-1.3h4.7V337c0-0.8-0.3-1.7-0.9-2.2
			c-0.8-0.6-1.7-0.8-2.7-0.8c-1.7,0.1-3.4,0.6-4.8,1.5l-1.4-2.7c1.1-0.6,2.2-1.1,3.4-1.5c1.2-0.3,2.4-0.5,3.6-0.5
			c1.7-0.1,3.5,0.4,4.9,1.5c1.2,1.1,1.8,2.6,1.8,4.2v10.5L280.2,347.1z M278.8,343.5c0.7-0.4,1.2-1.2,1.4-2V340h-4.1
			c-0.8-0.1-1.6,0.1-2.3,0.5c-0.5,0.3-0.8,0.9-0.7,1.5c0,0.6,0.3,1.2,0.8,1.6c0.6,0.4,1.3,0.7,2.1,0.6
			C276.9,344.3,277.9,344,278.8,343.5L278.8,343.5z"/>
		<path class="st1" d="M288.9,324.8h3.9v22.3h-3.9V324.8z"/>
		<path class="st1" d="M302.9,352.1c-1,0.7-2.1,1-3.3,1c-0.7,0-1.4-0.1-2.1-0.4c-0.7-0.3-1.3-0.6-1.9-1.1l1.7-3
			c0.3,0.2,0.7,0.5,1.1,0.6c0.3,0.1,0.7,0.2,1,0.2c1,0,2-0.6,2.4-1.6l0.5-1.1l-6.6-15.8h4.1l4.6,11.7l4.2-11.7h3.9l-7.2,18.1
			C304.7,350.3,303.9,351.3,302.9,352.1z"/>
		<path class="st1" d="M324.3,346.1c-1.2,0.8-2.6,1.2-4,1.2c-1.2,0.1-2.5-0.4-3.4-1.2c-0.9-1-1.4-2.3-1.3-3.6v-7.9h-2.3v-2.9h2.3
			v-4.4h3.9v4.4h4.5v2.9h-4.6v7.2c-0.1,0.6,0.1,1.1,0.4,1.6c0.3,0.3,0.8,0.5,1.3,0.5c0.8-0.1,1.6-0.3,2.3-0.7L324.3,346.1z"/>
		<path class="st1" d="M331.2,324.7c0.4,0.5,0.7,1.1,0.6,1.7c0,0.6-0.2,1.2-0.6,1.6c-0.9,0.9-2.3,0.9-3.2,0c-0.4-0.4-0.6-1-0.6-1.6
			c0-0.6,0.2-1.2,0.6-1.7C328.9,323.9,330.3,323.9,331.2,324.7z M327.7,331h3.9v16.1h-3.9V331z"/>
		<path class="st1" d="M343.6,334.3c-1.2,0-2.4,0.4-3.2,1.3c-0.8,0.9-1.3,2.2-1.2,3.4c-0.1,1.3,0.4,2.5,1.2,3.5
			c0.8,0.9,2,1.4,3.2,1.3c1.7,0.1,3.3-0.6,4.4-1.9l2.4,2c-0.7,1-1.7,1.9-2.9,2.4c-1.3,0.6-2.7,0.9-4.1,0.8c-1.5,0-2.9-0.3-4.2-1
			c-1.2-0.7-2.2-1.7-2.9-2.9c-1.4-2.7-1.4-5.9,0-8.6c0.7-1.2,1.7-2.2,2.9-2.9c1.3-0.7,2.8-1,4.2-1c1.3,0,2.7,0.2,3.9,0.8
			c1.1,0.5,2.1,1.2,2.8,2.2l-2.4,2.2C346.8,334.9,345.2,334.3,343.6,334.3z"/>
		<path class="st1" d="M361.2,334.3c-0.7-0.2-1.5-0.4-2.3-0.4c-0.5,0-1.1,0.1-1.6,0.3c-0.4,0.2-0.6,0.6-0.6,1.1c0,0.5,0.3,1,0.7,1.2
			c0.7,0.4,1.5,0.7,2.3,0.9c0.9,0.3,1.9,0.6,2.8,1c0.7,0.3,1.4,0.9,1.9,1.5c0.6,0.7,0.8,1.6,0.8,2.6c0.1,1.4-0.6,2.8-1.8,3.6
			c-1.3,0.9-2.9,1.3-4.5,1.3c-1.2,0-2.5-0.2-3.6-0.6c-1.1-0.3-2.1-0.9-3-1.7l1.4-2.7c0.8,0.6,1.6,1.1,2.6,1.5
			c0.9,0.3,1.9,0.5,2.9,0.5c0.6,0,1.2-0.1,1.7-0.4c0.4-0.2,0.7-0.7,0.6-1.1c0-0.5-0.3-1-0.8-1.3c-0.8-0.4-1.6-0.7-2.4-0.9
			c-0.9-0.3-1.8-0.6-2.6-0.9c-0.7-0.3-1.3-0.8-1.8-1.4c-0.5-0.7-0.8-1.6-0.8-2.5c-0.1-1.4,0.6-2.8,1.7-3.6c1.3-0.9,2.8-1.3,4.4-1.2
			c1.1,0,2.1,0.2,3.1,0.5c1,0.3,1.9,0.7,2.8,1.3l-1.4,2.8C362.8,334.9,362,334.5,361.2,334.3z"/>
		<path class="st0" d="M392,347.9l-3.1-3c-1.7,1.5-3.8,2.4-6.1,2.4c-1.2,0-2.5-0.2-3.6-0.8c-1-0.5-1.9-1.2-2.5-2.2
			c-0.6-0.9-0.9-2-0.9-3.1c0-1.2,0.4-2.4,1.1-3.3c0.9-1,2-1.8,3.2-2.4c-0.6-0.8-1-1.6-1.4-2.5c-0.3-0.7-0.4-1.5-0.4-2.3
			c0-1.4,0.5-2.7,1.6-3.6c1.2-1,2.7-1.4,4.2-1.4c1,0,2.1,0.2,3,0.6c0.8,0.3,1.5,0.9,2.1,1.6c0.5,0.7,0.7,1.5,0.7,2.4
			c0,1.2-0.4,2.4-1.3,3.2c-1.1,1-2.3,1.8-3.7,2.5c1,1.2,2.2,2.4,3.6,3.8c0.7-1.1,1.2-2.3,1.6-3.5l3,2.2c-0.5,1.3-1.2,2.6-2,3.8
			c0.6,0.6,1.7,1.6,3.2,3.1L392,347.9z M386.5,342.5c-1.8-1.8-3.3-3.4-4.5-4.7c-0.6,0.4-1.2,0.9-1.7,1.4c-0.4,0.5-0.6,1.1-0.6,1.7
			c0,0.8,0.4,1.6,1,2.2c0.7,0.6,1.5,0.9,2.4,0.8C384.3,343.9,385.5,343.4,386.5,342.5z M383.1,334c0.8-0.4,1.6-1,2.3-1.6
			c0.5-0.5,0.8-1.2,0.8-1.9c0-0.5-0.2-1-0.6-1.4c-0.4-0.4-1-0.6-1.5-0.5c-0.6,0-1.2,0.2-1.6,0.6c-0.4,0.4-0.6,1-0.6,1.6
			C382,332,382.4,333.1,383.1,334z"/>
		<path class="st1" d="M417.8,330.1c-2.1-1-4.6-1-6.7,0.2c-1.1,0.6-1.9,1.5-2.5,2.6c-1.3,2.2-1.3,5,0,7.2c1.2,2.2,3.6,3.6,6.1,3.5
			c1,0,2.1-0.2,3-0.7c1-0.4,1.9-1.1,2.7-1.8l2.4,2.6c-1.1,1.1-2.4,2-3.9,2.7c-1.4,0.6-2.9,1-4.5,1c-1.9,0-3.9-0.5-5.6-1.4
			c-1.7-0.9-3-2.3-4-3.9c-1-1.7-1.5-3.6-1.5-5.5c0-1.9,0.5-3.8,1.5-5.5c1-1.6,2.3-3,4-3.9c1.7-1,3.7-1.4,5.6-1.4
			c1.5,0,3,0.3,4.4,0.9c1.4,0.6,2.6,1.4,3.7,2.5l-2.4,3C419.7,331.3,418.8,330.6,417.8,330.1z"/>
		<path class="st1" d="M437.3,331.9c1.3,0.7,2.3,1.6,3,2.9c1.4,2.7,1.4,5.9,0,8.6c-0.7,1.2-1.7,2.2-3,2.9c-1.4,0.7-2.9,1-4.4,1
			c-1.5,0-3.1-0.3-4.5-1c-1.3-0.7-2.3-1.7-3-2.9c-1.4-2.7-1.4-5.9,0-8.6c0.7-1.2,1.7-2.2,3-2.9c1.4-0.7,2.9-1,4.5-1
			C434.4,330.9,436,331.2,437.3,331.9z M429.6,335.6c-1.7,2-1.7,5,0,7c0.9,0.9,2.1,1.4,3.3,1.4c1.2,0,2.4-0.5,3.2-1.4
			c1.7-2,1.7-5,0-7c-0.8-0.9-2-1.4-3.2-1.4C431.7,334.2,430.5,334.7,429.6,335.6z"/>
		<path class="st1" d="M470.5,332.5c1.1,1.2,1.7,2.9,1.6,4.5v10h-3.9v-8.9c0.1-1-0.3-2-0.9-2.7c-0.7-0.7-1.6-1-2.6-1
			c-1.2,0-2.3,0.5-3,1.4c-0.8,0.9-1.1,2.1-1.1,3.3v7.9h-3.9v-8.9c0.1-1-0.3-2-0.9-2.7c-0.7-0.7-1.6-1-2.6-1c-1.2,0-2.2,0.5-3,1.4
			c-0.8,0.9-1.1,2.1-1.1,3.3v7.9h-3.9v-16h3.9v3c1.1-2.1,2.9-3.1,5.7-3.1c1.3,0,2.5,0.3,3.5,1c1,0.7,1.7,1.7,2,2.8
			c1-2.5,3-3.8,6-3.9C467.8,330.8,469.4,331.4,470.5,332.5z"/>
		<path class="st1" d="M490.2,331.9c1.2,0.7,2.1,1.7,2.7,2.9c0.7,1.3,1,2.8,1,4.3c0,1.5-0.3,2.9-0.9,4.2c-0.6,1.2-1.5,2.2-2.6,2.9
			c-1.2,0.7-2.6,1-4,1c-1.1,0-2.2-0.2-3.2-0.7c-0.9-0.5-1.7-1.2-2.3-2.1v8.5h-3.9V331h3.9v2.6c0.6-0.9,1.3-1.6,2.2-2.1
			c1-0.5,2.1-0.7,3.2-0.7C487.6,330.8,489,331.2,490.2,331.9z M488.6,342.5c0.9-1,1.3-2.2,1.3-3.5c0.1-1.3-0.4-2.5-1.3-3.5
			c-0.8-0.9-2-1.4-3.2-1.4c-1.2,0-2.4,0.5-3.3,1.4c-1.7,2-1.7,5,0,7c0.8,0.9,2,1.4,3.3,1.4C486.6,343.9,487.8,343.4,488.6,342.5z"/>
		<path class="st1" d="M507.1,347.1v-2c-0.6,0.7-1.3,1.3-2.2,1.6c-1,0.4-2,0.6-3,0.5c-1,0-2.1-0.2-3-0.6c-0.8-0.4-1.5-1-2-1.8
			c-0.5-0.8-0.7-1.7-0.7-2.6c-0.1-1.4,0.5-2.7,1.6-3.5c1.3-0.9,2.9-1.4,4.5-1.3h4.7V337c0-0.8-0.3-1.7-0.9-2.2
			c-0.8-0.6-1.7-0.8-2.7-0.8c-1.7,0.1-3.4,0.6-4.8,1.5l-1.4-2.7c1.1-0.6,2.2-1.1,3.4-1.5c1.2-0.3,2.4-0.5,3.6-0.5
			c1.7-0.1,3.5,0.4,4.9,1.5c1.2,1.1,1.8,2.6,1.8,4.2v10.5L507.1,347.1z M505.7,343.5c0.7-0.4,1.2-1.2,1.4-2V340h-4
			c-0.8-0.1-1.6,0.1-2.3,0.5c-0.5,0.3-0.8,0.9-0.7,1.5c0,0.6,0.3,1.2,0.8,1.6c0.6,0.4,1.3,0.7,2.1,0.6
			C503.8,344.3,504.8,344,505.7,343.5z"/>
		<path class="st1" d="M521.8,331.7c1-0.6,2.1-0.9,3.3-0.9v3.8c-1.4-0.2-2.9,0.2-4,1.2c-1,0.9-1.6,2.2-1.5,3.5v7.8h-3.9V331h3.9v3.1
			C520,333.1,520.8,332.3,521.8,331.7z"/>
		<path class="st1" d="M537,347.1v-2c-0.6,0.7-1.3,1.3-2.2,1.6c-1,0.4-2,0.6-3,0.5c-1,0-2.1-0.2-3-0.6c-0.8-0.4-1.5-1-2-1.8
			c-0.5-0.8-0.7-1.7-0.7-2.6c-0.1-1.4,0.5-2.7,1.6-3.5c1.3-0.9,2.9-1.4,4.5-1.3h4.8V337c0-0.8-0.3-1.7-0.9-2.2
			c-0.8-0.6-1.7-0.8-2.7-0.8c-1.7,0.1-3.4,0.6-4.8,1.5l-1.4-2.7c1.1-0.6,2.2-1.1,3.4-1.5c1.2-0.3,2.4-0.5,3.6-0.5
			c1.7-0.1,3.5,0.4,4.9,1.5c1.2,1.1,1.8,2.6,1.8,4.2v10.5L537,347.1z M535.6,343.5c0.7-0.4,1.2-1.2,1.4-2V340h-4
			c-0.8-0.1-1.6,0.1-2.3,0.5c-0.5,0.3-0.8,0.9-0.7,1.5c0,0.6,0.3,1.2,0.8,1.6c0.6,0.4,1.4,0.7,2.1,0.6
			C533.8,344.3,534.8,344,535.6,343.5L535.6,343.5z"/>
		<path class="st1" d="M555,346.1c-1.2,0.8-2.6,1.2-4,1.2c-1.2,0.1-2.5-0.4-3.4-1.2c-0.9-1-1.4-2.3-1.3-3.6v-7.9H544v-2.9h2.3v-4.4
			h3.9v4.4h4.6v2.9h-4.6v7.2c-0.1,0.6,0.1,1.1,0.4,1.6c0.3,0.3,0.8,0.5,1.3,0.5c0.8-0.1,1.6-0.3,2.3-0.7L555,346.1z"/>
		<path class="st1" d="M562,324.7c0.4,0.5,0.7,1.1,0.6,1.7c0,0.6-0.2,1.2-0.6,1.6c-0.4,0.4-1,0.7-1.6,0.7c-0.6,0-1.2-0.2-1.6-0.7
			c-0.4-0.4-0.6-1-0.6-1.6c0-0.6,0.2-1.2,0.6-1.7c0.4-0.4,1-0.7,1.6-0.7C561,324.1,561.6,324.3,562,324.7z M558.4,331h3.9v16.1h-3.9
			V331z"/>
		<path class="st1" d="M565,331h4.1l4.2,12.2l4.1-12.2h3.9l-6.1,16.1h-4L565,331z"/>
		<path class="st1" d="M595.9,333.1c1.4,1.7,2.1,3.9,1.9,6.2c0,0.5,0,0.9,0,1.2H586c0.2,1.1,0.8,2,1.6,2.7c0.9,0.7,1.9,1,3,1
			c0.8,0,1.6-0.2,2.4-0.5c0.8-0.3,1.4-0.8,2-1.3l2.1,2.2c-0.8,0.9-1.8,1.6-2.9,2c-1.2,0.5-2.5,0.7-3.8,0.7c-1.5,0-3-0.3-4.3-1
			c-1.2-0.7-2.2-1.7-2.9-2.9c-1.4-2.7-1.4-5.9,0-8.5c0.7-1.2,1.7-2.2,2.9-2.9c1.3-0.7,2.8-1,4.2-1
			C592.3,330.8,594.4,331.6,595.9,333.1z M594.3,337.8c0-1.1-0.4-2.1-1.2-2.8c-0.8-0.7-1.9-1.1-2.9-1c-1.1,0-2.1,0.3-2.9,1
			c-0.8,0.8-1.3,1.8-1.4,2.9L594.3,337.8z"/>
		<path class="st1" d="M609.4,326h15.4v3.5h-11.4v5.2h10.2v3.5h-10.2v5.3h11.8v3.5h-15.8L609.4,326z"/>
		<path class="st1" d="M634.7,328.5c-0.4,0.4-0.6,1-0.6,1.5v1.6h4v2.9h-4v12.6h-3.9v-12.6h-2.1v-2.9h2.1v-1.5c0-1.1,0.2-2.1,0.8-3
			c0.5-0.8,1.2-1.5,2.1-1.9c0.9-0.4,1.9-0.6,2.8-0.6c1,0,2.1,0.2,3,0.7l-0.7,3.2c-0.6-0.3-1.3-0.4-2-0.5
			C635.7,328,635.1,328.1,634.7,328.5z"/>
		<path class="st1" d="M646.2,328.5c-0.4,0.4-0.6,1-0.6,1.5v1.6h4v2.9h-4v12.6h-3.9v-12.6h-2.1v-2.9h2.1v-1.5c0-1.1,0.2-2.1,0.8-3
			c0.5-0.8,1.2-1.5,2.1-1.9c0.9-0.4,1.9-0.6,2.8-0.6c1,0,2.1,0.2,3,0.7l-0.7,3.2c-0.6-0.3-1.3-0.4-2-0.5
			C647.1,328,646.6,328.1,646.2,328.5z"/>
		<path class="st1" d="M664.5,333.1c1.4,1.7,2.1,3.9,1.9,6.2c0,0.5,0,0.9,0,1.2h-11.9c0.4,2.2,2.4,3.8,4.6,3.7
			c0.8,0,1.6-0.2,2.4-0.5c0.8-0.3,1.4-0.8,2-1.3l2.1,2.2c-0.8,0.9-1.8,1.6-2.9,2c-1.2,0.5-2.5,0.7-3.8,0.7c-1.5,0-3-0.3-4.3-1
			c-1.2-0.7-2.2-1.7-2.9-2.9c-1.4-2.7-1.4-5.9,0-8.5c0.7-1.2,1.7-2.2,2.9-2.9c1.3-0.7,2.8-1,4.2-1
			C660.8,330.7,662.9,331.5,664.5,333.1z M662.8,337.8c0-1.1-0.4-2.1-1.2-2.8c-1.7-1.4-4.1-1.4-5.8,0c-0.8,0.7-1.3,1.8-1.4,2.9
			L662.8,337.8z"/>
		<path class="st1" d="M677,334.3c-1.2,0-2.4,0.4-3.2,1.3c-0.8,0.9-1.3,2.2-1.2,3.4c-0.1,1.3,0.4,2.5,1.2,3.5c0.8,0.9,2,1.4,3.2,1.3
			c1.7,0.1,3.3-0.6,4.3-1.9l2.4,2c-0.7,1-1.7,1.9-2.9,2.4c-1.3,0.6-2.7,0.9-4.1,0.8c-1.5,0-2.9-0.3-4.2-1c-1.2-0.7-2.2-1.7-2.9-2.9
			c-1.4-2.7-1.4-5.9,0-8.6c0.7-1.2,1.7-2.2,2.9-2.9c1.3-0.7,2.8-1,4.3-1c1.3,0,2.7,0.2,3.9,0.8c1.1,0.5,2.1,1.2,2.8,2.2l-2.4,2.2
			C680.1,334.9,678.6,334.3,677,334.3z"/>
		<path class="st1" d="M696.8,346.1c-1.2,0.8-2.6,1.2-4,1.2c-1.2,0-2.5-0.4-3.4-1.2c-0.9-1-1.4-2.3-1.3-3.6v-7.9h-2.3v-2.9h2.3v-4.4
			h3.9v4.4h4.6v2.9H692v7.2c-0.1,0.6,0.1,1.1,0.4,1.6c0.3,0.3,0.8,0.5,1.3,0.5c0.8-0.1,1.6-0.3,2.3-0.7L696.8,346.1z"/>
		<path class="st1" d="M703.7,324.7c0.4,0.5,0.7,1.1,0.6,1.7c0,0.6-0.2,1.2-0.6,1.6c-0.9,0.9-2.3,0.9-3.2,0c-0.4-0.4-0.7-1-0.6-1.6
			c0-0.6,0.2-1.2,0.6-1.7C701.4,323.9,702.9,323.9,703.7,324.7z M700.2,331h3.9v16.1h-3.9V331z"/>
		<path class="st1" d="M706.8,331h4.1l4.2,12.2l4.1-12.2h3.9l-6.1,16.1h-4L706.8,331z"/>
		<path class="st1" d="M737.7,333.1c1.4,1.7,2.1,3.9,1.9,6.2c0,0.5,0,0.9,0,1.2h-11.9c0.4,2.2,2.4,3.8,4.6,3.7
			c0.8,0,1.6-0.2,2.4-0.5c0.8-0.3,1.4-0.8,2-1.3l2.1,2.2c-0.8,0.9-1.8,1.6-2.9,2c-1.2,0.5-2.5,0.7-3.8,0.7c-1.5,0-3-0.3-4.3-1
			c-1.2-0.7-2.2-1.6-2.9-2.9c-1.4-2.7-1.4-5.9,0-8.5c0.7-1.2,1.7-2.2,2.9-2.9c1.3-0.7,2.8-1,4.2-1
			C734.1,330.7,736.2,331.5,737.7,333.1z M736.1,337.8c0-1.1-0.4-2.1-1.2-2.8c-1.7-1.4-4.1-1.4-5.8,0c-0.8,0.8-1.3,1.8-1.4,2.9
			L736.1,337.8z"/>
		<path class="st1" d="M757.4,332.5c1.1,1.2,1.7,2.9,1.6,4.5v10h-3.9v-8.9c0-1-0.3-1.9-1-2.7c-0.7-0.7-1.6-1-2.6-1
			c-1.2,0-2.3,0.4-3.1,1.3c-0.8,0.9-1.2,2.1-1.1,3.3v7.9h-3.9v-16h3.9v3c1.1-2.1,3-3.1,5.8-3.2C754.6,330.7,756.2,331.4,757.4,332.5
			z"/>
		<path class="st1" d="M776.2,333.1c1.4,1.7,2.1,3.9,1.9,6.2c0,0.5,0,0.9,0,1.2h-11.9c0.4,2.2,2.4,3.8,4.6,3.7
			c0.8,0,1.6-0.2,2.4-0.5c0.8-0.3,1.4-0.8,2-1.3l2.1,2.2c-0.8,0.9-1.8,1.6-2.9,2c-1.2,0.5-2.5,0.7-3.8,0.7c-1.5,0-3-0.3-4.3-1
			c-1.2-0.7-2.2-1.7-2.9-2.9c-0.7-1.3-1-2.8-1-4.3c0-1.5,0.3-3,1-4.3c0.7-1.2,1.7-2.2,2.9-2.9c1.3-0.7,2.8-1,4.2-1
			C772.6,330.7,774.7,331.5,776.2,333.1z M774.6,337.8c0-1.1-0.4-2.1-1.2-2.8c-1.7-1.4-4.1-1.4-5.8,0c-0.8,0.8-1.3,1.8-1.4,2.9
			L774.6,337.8z"/>
		<path class="st1" d="M789,334.3c-0.7-0.2-1.5-0.4-2.3-0.4c-0.5,0-1.1,0.1-1.6,0.3c-0.4,0.2-0.6,0.6-0.6,1.1c0,0.5,0.3,1,0.7,1.2
			c0.7,0.4,1.5,0.7,2.3,0.9c0.9,0.3,1.9,0.6,2.8,1c0.7,0.3,1.4,0.9,1.9,1.5c0.6,0.7,0.8,1.6,0.8,2.6c0.1,1.4-0.6,2.8-1.8,3.6
			c-1.3,0.9-2.9,1.3-4.5,1.3c-1.2,0-2.5-0.2-3.6-0.6c-1.1-0.3-2.1-0.9-3-1.7l1.3-2.7c0.8,0.6,1.6,1.1,2.6,1.5
			c0.9,0.3,1.9,0.5,2.9,0.5c0.6,0,1.2-0.1,1.7-0.4c0.4-0.2,0.7-0.7,0.6-1.1c0-0.5-0.3-1-0.8-1.3c-0.8-0.4-1.6-0.7-2.4-0.9
			c-0.9-0.3-1.8-0.6-2.6-0.9c-0.7-0.3-1.3-0.8-1.8-1.4c-0.5-0.7-0.8-1.6-0.8-2.5c-0.1-1.4,0.6-2.8,1.7-3.6c1.3-0.9,2.8-1.3,4.3-1.2
			c1.1,0,2.1,0.2,3.1,0.5c1,0.3,1.9,0.7,2.8,1.3l-1.4,2.8C790.7,334.9,789.8,334.5,789,334.3z"/>
		<path class="st1" d="M803.8,334.3c-0.7-0.2-1.5-0.4-2.3-0.4c-0.5,0-1.1,0.1-1.6,0.3c-0.4,0.2-0.6,0.6-0.6,1.1c0,0.5,0.3,1,0.7,1.2
			c0.7,0.4,1.5,0.7,2.3,0.9c0.9,0.3,1.9,0.6,2.8,1c0.7,0.3,1.4,0.9,1.9,1.5c0.6,0.7,0.8,1.6,0.8,2.6c0.1,1.4-0.6,2.8-1.8,3.6
			c-1.3,0.9-2.9,1.3-4.5,1.3c-1.2,0-2.5-0.2-3.6-0.6c-1.1-0.3-2.1-0.9-3-1.7l1.3-2.7c0.8,0.6,1.6,1.1,2.6,1.5
			c0.9,0.3,1.9,0.5,2.9,0.5c0.6,0,1.2-0.1,1.7-0.4c0.4-0.2,0.7-0.7,0.7-1.1c0-0.5-0.3-1-0.8-1.3c-0.8-0.4-1.6-0.7-2.4-0.9
			c-0.9-0.3-1.8-0.6-2.7-0.9c-0.7-0.3-1.3-0.8-1.8-1.4c-0.5-0.7-0.8-1.6-0.8-2.5c-0.1-1.4,0.6-2.8,1.7-3.6c1.3-0.9,2.8-1.3,4.3-1.2
			c1.1,0,2.1,0.2,3.1,0.5c1,0.3,1.9,0.7,2.8,1.3l-1.4,2.8C805.5,334.9,804.7,334.5,803.8,334.3z"/>
		<path class="st1" d="M832,330.1c-2.1-1-4.6-1-6.7,0.2c-1.1,0.6-2,1.5-2.6,2.6c-1.2,2.2-1.2,5,0,7.2c1.3,2.2,3.6,3.6,6.1,3.5
			c1,0,2.1-0.2,3-0.7c1-0.4,1.9-1.1,2.7-1.8l2.4,2.6c-1.1,1.1-2.4,2-3.8,2.7c-1.4,0.6-2.9,1-4.5,1c-2,0-3.9-0.5-5.6-1.4
			c-1.7-0.9-3-2.3-4-3.9c-1-1.7-1.5-3.6-1.5-5.5c0-3.9,2.1-7.5,5.5-9.4c1.7-1,3.7-1.4,5.7-1.4c1.5,0,3,0.3,4.4,0.9
			c1.4,0.6,2.7,1.4,3.7,2.5l-2.3,3C833.9,331.3,833,330.6,832,330.1z"/>
		<path class="st1" d="M852.6,333.1c1.4,1.7,2.1,3.9,1.9,6.2c0,0.5,0,0.9,0,1.2h-11.9c0.4,2.2,2.4,3.8,4.6,3.7
			c0.8,0,1.6-0.2,2.4-0.5c0.8-0.3,1.4-0.8,2-1.3l2.1,2.2c-0.8,0.9-1.8,1.6-2.9,2c-1.2,0.5-2.5,0.7-3.8,0.7c-1.5,0-3-0.3-4.3-1
			c-1.2-0.7-2.2-1.7-2.9-2.9c-1.4-2.7-1.4-5.9,0-8.5c0.7-1.2,1.7-2.2,2.9-2.9c1.3-0.7,2.8-1,4.2-1
			C849,330.7,851.1,331.5,852.6,333.1z M850.9,337.8c0-1.1-0.4-2.1-1.2-2.8c-0.8-0.7-1.9-1.1-2.9-1c-1.1,0-2.1,0.3-2.9,1
			c-0.8,0.8-1.3,1.8-1.4,2.9L850.9,337.8z"/>
		<path class="st1" d="M872.3,332.5c1.1,1.2,1.7,2.9,1.6,4.5v10h-3.9v-8.9c0-1-0.3-1.9-1-2.7c-0.7-0.7-1.6-1-2.6-1
			c-1.2,0-2.3,0.5-3.1,1.3c-0.8,0.9-1.2,2.1-1.1,3.3v7.9h-3.9v-16h3.9v3c1.1-2.1,3-3.1,5.8-3.2C869.5,330.7,871.1,331.4,872.3,332.5
			z"/>
		<path class="st1" d="M888,346.1c-1.2,0.8-2.6,1.2-4,1.2c-1.2,0.1-2.5-0.4-3.4-1.2c-0.9-1-1.4-2.3-1.3-3.6v-7.9H877v-2.9h2.3v-4.4
			h3.9v4.4h4.6v2.9h-4.6v7.2c-0.1,0.6,0.1,1.1,0.4,1.6c0.3,0.3,0.8,0.5,1.3,0.5c0.8-0.1,1.6-0.3,2.3-0.7L888,346.1z"/>
		<path class="st1" d="M903.8,333.1c1.4,1.7,2.1,3.9,1.9,6.2c0,0.5,0,0.9,0,1.2h-11.9c0.4,2.2,2.4,3.8,4.6,3.7
			c0.8,0,1.6-0.2,2.4-0.5c0.8-0.3,1.4-0.8,2-1.3l2.1,2.2c-0.8,0.9-1.8,1.6-2.9,2c-1.2,0.5-2.5,0.7-3.8,0.7c-1.5,0-3-0.3-4.3-1
			c-1.2-0.7-2.2-1.7-2.9-2.9c-1.4-2.7-1.4-5.9,0-8.5c0.7-1.2,1.7-2.2,2.9-2.9c1.3-0.7,2.8-1,4.2-1
			C900.1,330.7,902.2,331.5,903.8,333.1z M902.1,337.8c0-1.1-0.4-2.1-1.2-2.8c-1.7-1.4-4.1-1.4-5.8,0c-0.8,0.7-1.3,1.8-1.4,2.9
			L902.1,337.8z"/>
		<path class="st1" d="M915.5,331.7c1-0.6,2.1-0.9,3.3-0.9v3.8c-1.4-0.2-2.9,0.2-4,1.2c-1,0.9-1.5,2.2-1.5,3.5v7.8h-3.9V331h3.9v3.1
			C913.8,333.1,914.6,332.3,915.5,331.7z"/>
	</g>
</g>
</svg>
