<?xml version="1.0" encoding="utf-8"?>
<!-- Generator: Adobe Illustrator 23.0.2, SVG Export Plug-In . SVG Version: 6.00 Build 0)  -->
<svg version="1.1" id="Layer_1" xmlns="http://www.w3.org/2000/svg" xmlns:xlink="http://www.w3.org/1999/xlink" x="0px" y="0px"
	 viewBox="0 0 211.5 69.4" style="enable-background:new 0 0 211.5 69.4;" xml:space="preserve">
<style type="text/css">
	.st0{fill:#FFFFFF;}
	.st1{fill:none;stroke:#FFFFFF;stroke-width:0.62;stroke-miterlimit:10;}
	.st2{fill:none;stroke:#FFFFFF;stroke-width:0.83;stroke-miterlimit:10;}
	.st3{fill:#A1D3E5;}
</style>
<title>LOGO_CPM_header</title>
<g>
	<g id="Layer_1-2">
		<path class="st0" d="M53.6,43.3c-0.9,0-1.7,0.8-1.7,1.7c0,0.9,0.8,1.7,1.7,1.7c0.6,0,1.1-0.3,1.4-0.8l0.6,0.5c-0.5,0.6-1.2,1-2,1
			c-1.3,0-2.4-1.1-2.4-2.4c0-1.3,1.1-2.4,2.4-2.4c0.7,0,1.4,0.3,1.9,0.8L55,43.9C54.6,43.5,54.1,43.3,53.6,43.3z"/>
		<path class="st0" d="M60.1,47.4H57v-4.7h1v4h2.1L60.1,47.4z"/>
		<path class="st0" d="M61.5,47.4v-4.7h0.9v4.7L61.5,47.4z"/>
		<path class="st0" d="M68.7,47.4h-0.6l-3-3.2v3.2h-0.9v-4.7h0.6l3,3.2v-3.2h0.9L68.7,47.4z"/>
		<path class="st0" d="M70.6,47.4v-4.7h0.9v4.7L70.6,47.4z"/>
		<path class="st0" d="M75.6,43.3c-0.9,0-1.6,0.7-1.6,1.5c0,0.1,0,0.1,0,0.2c-0.1,0.9,0.6,1.6,1.4,1.7c0.1,0,0.1,0,0.2,0
			c0.6,0,1.1-0.3,1.4-0.8l0.6,0.5c-0.5,0.6-1.2,1-2,1c-1.3,0-2.4-1.1-2.4-2.4c0-1.3,1.1-2.4,2.4-2.4c0.7,0,1.4,0.3,1.9,0.8L77,44
			C76.6,43.5,76.1,43.3,75.6,43.3z"/>
		<path class="st0" d="M79.8,46.4l-0.4,0.9h-1l2-4.7h0.8l2,4.7h-1L82,46.4H79.8z M80.9,43.8l-0.8,1.9h1.6L80.9,43.8z"/>
		<path class="st0" d="M87.6,47.4h-3v-4.7h0.9v4h2.1L87.6,47.4z"/>
		<path class="st0" d="M94.8,44.2c0,0.9-0.7,1.6-1.5,1.6c-0.1,0-0.1,0-0.2,0h-1v1.6h-0.9v-4.7h1.9c0.8-0.1,1.6,0.5,1.7,1.4
			C94.8,44,94.8,44.1,94.8,44.2z M93.8,44.2c0-0.4-0.3-0.8-0.7-0.8c0,0-0.1,0-0.1,0h-0.9V45H93c0.4,0,0.8-0.3,0.8-0.7
			C93.8,44.3,93.8,44.2,93.8,44.2L93.8,44.2z"/>
		<path class="st0" d="M97.2,45.6v1.7h-0.9v-4.7h2c0.8-0.1,1.6,0.5,1.7,1.3c0,0.1,0,0.1,0,0.2c0,0.6-0.4,1.1-0.9,1.3l1.3,1.9h-1
			l-1.1-1.7L97.2,45.6z M98.1,44.9c0.6,0,0.9-0.3,0.9-0.8c0-0.4-0.3-0.8-0.8-0.8c0,0,0,0-0.1,0h-1v1.5H98.1z"/>
		<path class="st0" d="M105,47.4h-3.3v-4.7h3.3v0.8h-2.4v1.2h2.1v0.7h-2.1v1.3h2.4V47.4z"/>
		<path class="st0" d="M110.9,45c0.1,1.2-0.9,2.3-2.1,2.4c-0.1,0-0.2,0-0.3,0h-1.9v-4.7h1.9c1.2-0.1,2.3,0.9,2.4,2.1
			C110.9,44.8,110.9,44.9,110.9,45z M109.9,45c0.1-0.8-0.5-1.5-1.2-1.6c-0.1,0-0.1,0-0.2,0h-1v3.2h1c0.8,0,1.5-0.6,1.5-1.4
			C109.9,45.1,109.9,45.1,109.9,45L109.9,45z"/>
		<path class="st0" d="M112.4,47.4v-4.7h0.9v4.7L112.4,47.4z"/>
		<path class="st0" d="M117.5,43.3c-0.9,0-1.7,0.8-1.7,1.7c0,0.9,0.8,1.7,1.7,1.7l0,0c0.6,0,1.1-0.3,1.4-0.8l0.6,0.5
			c-0.5,0.6-1.2,1-2,1c-1.3,0-2.4-1.1-2.4-2.4c0-1.3,1.1-2.4,2.4-2.4c0.7,0,1.4,0.3,1.9,0.8l-0.6,0.6
			C118.5,43.5,118,43.3,117.5,43.3z"/>
		<path class="st0" d="M122.8,43.4v4h-0.9v-4h-1.5v-0.8h3.8v0.8H122.8z"/>
		<path class="st0" d="M125.6,47.4v-4.7h0.9v4.7L125.6,47.4z"/>
		<path class="st0" d="M128.1,45c0-1.4,1-2.6,2.4-2.6c1.4,0,2.6,1,2.6,2.4c0,1.4-1,2.6-2.4,2.6c0,0,0,0-0.1,0
			c-1.3,0.1-2.4-0.9-2.5-2.2C128.1,45.2,128.1,45.1,128.1,45z M132.2,45c-0.1-0.9-0.8-1.5-1.7-1.4c-0.9,0.1-1.5,0.8-1.4,1.7
			c0.1,0.8,0.7,1.5,1.6,1.4c0.9,0,1.6-0.7,1.6-1.5C132.2,45.1,132.2,45.1,132.2,45z"/>
		<path class="st0" d="M139.1,47.4h-0.6l-3-3.2v3.2h-0.9v-4.7h0.6l3,3.2v-3.2h0.9L139.1,47.4z"/>
		<path class="st0" d="M147.7,44.3l-1.3,3.1h-0.9l-1.3-3l-0.2,3h-0.9l0.3-4.7h0.9l1.6,3.9l1.6-3.9h0.9l0.3,4.7h-0.9L147.7,44.3z"/>
		<path class="st0" d="M150.2,45c0-1.4,1-2.6,2.4-2.6c1.4,0,2.6,1,2.6,2.4c0,1.4-1,2.6-2.4,2.6c0,0,0,0-0.1,0
			c-1.3,0.1-2.4-0.9-2.5-2.2C150.2,45.2,150.2,45.1,150.2,45z M154.3,45c-0.1-0.9-0.8-1.5-1.7-1.5c-0.9,0.1-1.5,0.8-1.5,1.7
			c0.1,0.8,0.8,1.5,1.6,1.5c0.9,0,1.6-0.7,1.6-1.5C154.3,45.1,154.3,45.1,154.3,45L154.3,45z"/>
		<path class="st0" d="M161.1,45c0.1,1.2-0.9,2.3-2.1,2.4c-0.1,0-0.2,0-0.3,0h-1.9v-4.7h1.9c1.2-0.1,2.3,0.9,2.4,2.1
			C161.1,44.8,161.1,44.9,161.1,45z M160.1,45c0.1-0.8-0.5-1.5-1.2-1.6c-0.1,0-0.1,0-0.2,0h-1v3.2h1c0.8,0,1.4-0.7,1.4-1.5
			C160.1,45.1,160.1,45.1,160.1,45z"/>
		<path class="st0" d="M165.9,47.4h-3.3v-4.7h3.3v0.8h-2.4v1.2h2.1v0.7h-2.1v1.3h2.4L165.9,47.4z"/>
		<path class="st0" d="M170.6,47.4h-3v-4.7h0.9v4h2.1L170.6,47.4z"/>
		<path class="st0" d="M175,45.6v1.7h-0.9v-4.7h2c0.8-0.1,1.6,0.5,1.7,1.3c0,0.1,0,0.1,0,0.2c0,0.6-0.3,1.1-0.9,1.3l1.3,1.9h-1.1
			l-1.1-1.7H175z M175.9,44.9c0.6,0,0.9-0.3,0.9-0.8c0-0.4-0.3-0.8-0.8-0.8c0,0,0,0-0.1,0h-1v1.5H175.9z"/>
		<path class="st0" d="M182.9,47.4h-3.3v-4.7h3.3v0.8h-2.4v1.2h2.1v0.7h-2.1v1.3h2.4L182.9,47.4z"/>
		<path class="st0" d="M189,45c0.1,1.2-0.8,2.3-2.1,2.4c-0.1,0-0.2,0-0.3,0c-1.3,0-2.4-1.1-2.4-2.4c0-1.3,1.1-2.4,2.4-2.4l0,0
			c0.6,0,1.2,0.2,1.7,0.5l-0.6,0.6c-0.7-0.6-1.8-0.4-2.3,0.3s-0.4,1.8,0.3,2.3c0.3,0.2,0.6,0.3,0.9,0.3c0.7,0,1.4-0.5,1.4-1.2
			c0,0,0,0,0,0h-1.2v-0.7h2.2C189,44.8,189,44.9,189,45z"/>
		<path class="st0" d="M190.4,47.4v-4.7h0.9v4.7L190.4,47.4z"/>
		<path class="st0" d="M194.4,45.4l-0.2-0.1c-0.7-0.2-1.3-0.5-1.3-1.3c0-0.8,0.7-1.5,1.5-1.5c0.1,0,0.1,0,0.2,0
			c0.6,0,1.1,0.2,1.5,0.5l-0.4,0.6c-0.3-0.3-0.7-0.4-1.1-0.4c-0.4,0-0.7,0.2-0.7,0.5s0.3,0.5,0.8,0.7l0.2,0.1
			c0.7,0.2,1.4,0.6,1.4,1.5s-0.7,1.4-1.7,1.4c-0.6,0-1.1-0.2-1.6-0.6l0.3-0.6c0.3,0.3,0.7,0.5,1.2,0.5c0.5,0,0.8-0.2,0.8-0.6
			S195,45.6,194.4,45.4z"/>
		<path class="st0" d="M199.6,43.4v4h-0.9v-4h-1.5v-0.8h3.8v0.8H199.6z"/>
		<path class="st0" d="M203.4,45.6v1.7h-0.9v-4.7h2c0.8-0.1,1.6,0.5,1.7,1.3c0,0.1,0,0.1,0,0.2c0,0.6-0.3,1.1-0.9,1.3l1.3,1.9h-1.1
			l-1.1-1.7H203.4z M204.3,44.9c0.6,0,0.9-0.3,0.9-0.8c0-0.4-0.3-0.8-0.8-0.8c0,0,0,0-0.1,0h-1v1.5H204.3z"/>
		<path class="st0" d="M209.8,45.6v1.8h-0.9v-1.8l-1.7-3h1l1.2,2.2l1.2-2.2h1L209.8,45.6z"/>
		<line class="st1" x1="18.5" y1="46.3" x2="18.5" y2="69.4"/>
		<line class="st1" x1="41.5" y1="54.8" x2="41.5" y2="69.4"/>
		<line class="st1" x1="39.2" y1="53.6" x2="39.2" y2="69.4"/>
		<line class="st1" x1="36.9" y1="52.1" x2="36.9" y2="69.4"/>
		<line class="st1" x1="34.6" y1="50.6" x2="34.6" y2="69.4"/>
		<line class="st1" x1="32.3" y1="49" x2="32.3" y2="69.4"/>
		<line class="st1" x1="30" y1="47.1" x2="30" y2="69.4"/>
		<line class="st1" x1="27.7" y1="44.8" x2="27.7" y2="69.4"/>
		<line class="st1" x1="25.4" y1="41.4" x2="25.4" y2="69.4"/>
		<line class="st1" x1="23.1" y1="38.7" x2="23.1" y2="69.4"/>
		<line class="st1" x1="20.8" y1="42.5" x2="20.8" y2="69.4"/>
		<line class="st1" x1="64.6" y1="62.1" x2="64.6" y2="69.4"/>
		<line class="st1" x1="62.2" y1="61.7" x2="62.2" y2="69.4"/>
		<line class="st1" x1="60" y1="61.3" x2="60" y2="69.4"/>
		<line class="st1" x1="57.6" y1="60.6" x2="57.6" y2="69.4"/>
		<line class="st1" x1="55.3" y1="59.8" x2="55.3" y2="69.4"/>
		<line class="st1" x1="53" y1="59.4" x2="53" y2="69.4"/>
		<line class="st1" x1="50.7" y1="58.6" x2="50.7" y2="69.4"/>
		<line class="st1" x1="48.4" y1="57.9" x2="48.4" y2="69.4"/>
		<line class="st1" x1="46.1" y1="56.7" x2="46.1" y2="69.4"/>
		<line class="st1" x1="43.8" y1="56" x2="43.8" y2="69.4"/>
		<line class="st1" x1="87.6" y1="65.9" x2="87.6" y2="69.4"/>
		<line class="st1" x1="85.3" y1="65.6" x2="85.3" y2="69.4"/>
		<line class="st1" x1="83" y1="65.2" x2="83" y2="69.4"/>
		<line class="st1" x1="80.7" y1="64.8" x2="80.7" y2="69.4"/>
		<line class="st1" x1="78.4" y1="64.4" x2="78.4" y2="69.4"/>
		<line class="st1" x1="76.1" y1="64" x2="76.1" y2="69.4"/>
		<line class="st1" x1="73.8" y1="63.6" x2="73.8" y2="69.4"/>
		<line class="st1" x1="71.5" y1="63.2" x2="71.5" y2="69.4"/>
		<line class="st1" x1="69.2" y1="62.9" x2="69.2" y2="69.4"/>
		<line class="st1" x1="66.9" y1="62.5" x2="66.9" y2="69.4"/>
		<line class="st1" x1="16.2" y1="50.6" x2="16.2" y2="69.4"/>
		<line class="st1" x1="13.9" y1="54" x2="13.9" y2="69.4"/>
		<line class="st1" x1="11.6" y1="56.7" x2="11.6" y2="69.4"/>
		<line class="st1" x1="9.3" y1="59.8" x2="9.3" y2="69.4"/>
		<line class="st1" x1="7" y1="61.7" x2="7" y2="69.4"/>
		<line class="st1" x1="4.7" y1="63.6" x2="4.7" y2="69.4"/>
		<line class="st1" x1="2.3" y1="65.2" x2="2.3" y2="69.4"/>
		<path class="st0" d="M47.9,0.2c-9,7.4-16.5,14.4-22,24.8C18.7,38.4,12.4,52.1,0.2,62c-0.6,0.5,0.3,1.4,0.9,0.9
			c11.6-9.4,18.1-22.2,24.8-35.2c2.7-5.4,6-10.5,9.9-15.1c3.8-4.4,8.5-7.8,13-11.5C49.4,0.5,48.5-0.3,47.9,0.2L47.9,0.2z"/>
		<line class="st2" x1="60.1" y1="5.1" x2="0.6" y2="48.5"/>
		<path class="st0" d="M109.4,26.9c0,3-2.1,5.1-5.4,5.1h-3.7v5.7h-2.3V22h6C107.3,22,109.4,24,109.4,26.9z M107.1,27
			c0.1-1.7-1.2-3.1-2.9-3.1c-0.1,0-0.2,0-0.4,0h-3.5v6.3h3.5c1.7,0.1,3.1-1.1,3.2-2.8C107.1,27.3,107.1,27.1,107.1,27L107.1,27z"/>
		<path class="st0" d="M112.9,34.1l-1.5,3.7H109l6.8-15.7h2.1l6.8,15.7h-2.4l-1.5-3.7H112.9z M116.9,24.8l-3.1,7.4h6.3L116.9,24.8z"
			/>
		<path class="st0" d="M133.5,23.6c-3.5,0-5.8,2.5-5.8,6.2s2.3,6.2,5.8,6.2c2,0.1,3.9-0.9,4.9-2.6l1.6,1.4c-1.5,2-4,3.2-6.5,3.1
			c-4.9,0-8.1-3.2-8.1-8.1s3.2-8,8.1-8c2.3-0.1,4.5,0.9,6.1,2.6l-1.4,1.4C137,24.4,135.3,23.6,133.5,23.6z"/>
		<path class="st0" d="M152.9,37.7h-10.3V22h10.2v1.9h-7.9v4.9h7.3v1.9h-7.3v5.2h8.1V37.7z"/>
		<path class="st0" d="M168.6,25.4c-2.3-0.1-4.1,1.7-4.2,4c0,0.2,0,0.3,0,0.5c-0.2,2.3,1.6,4.3,3.9,4.5c0.2,0,0.3,0,0.5,0
			c1.6,0.1,3.2-0.8,3.9-2.3l2.9,2.6c-1.6,2.2-4.3,3.4-7,3.2c-5.2,0-8.8-3.3-8.8-8.1s3.5-8,8.7-8c2.4-0.1,4.8,0.8,6.5,2.5l-2.8,2.8
			C171.4,26,170,25.3,168.6,25.4z"/>
		<path class="st0" d="M190.2,27.4c0,3.4-2.4,5.7-6.1,5.7h-2.4v4.7h-4.4V22h7C187.8,22,190.2,24.1,190.2,27.4z M185.7,27.5
			c0.1-1-0.6-1.8-1.6-1.9c-0.1,0-0.2,0-0.2,0h-2.2v3.8h2.2c0.9,0.1,1.8-0.7,1.8-1.6C185.7,27.7,185.7,27.6,185.7,27.5z"/>
		<path class="st0" d="M206.3,30.5l-2.7,7.3h-4.4l-2.6-7.2l-0.4,7.2h-4.4l1.2-15.6h4.3l4.2,11.8l4.3-11.8h4.3l1.2,15.6h-4.4
			L206.3,30.5z"/>
		<path class="st3" d="M53.9,36.1V25h-3.1v3.8H49v-5.7h12v3.8h-1.8V25h-3.1v11.1H58V38h-6v-1.9H53.9z"/>
		<path class="st3" d="M70.8,36.2V38H67v-1.2c-1,0.8-2.2,1.3-3.4,1.4c-0.6,0-1.2-0.1-1.7-0.5c-0.4-0.3-0.7-0.7-0.9-1.2
			c-0.2-0.8-0.3-1.5-0.2-2.3v-4.8h-1.5v-1.8h3.5v6.3c0,0.5,0,1,0.1,1.5c0,0.3,0.2,0.5,0.4,0.7c0.2,0.2,0.5,0.3,0.8,0.3
			c1.2-0.1,2.2-0.6,3.1-1.4v-5.6h-1.9v-1.8H69v8.5H70.8z"/>
		<path class="st3" d="M72.9,36.2v-6.8h-1.5v-1.8h1.5v-1.5c-0.1-0.9,0.2-1.9,0.8-2.6c0.5-0.4,1.2-0.7,1.9-0.7
			c1.4-0.2,2.8,0.4,3.6,1.6L78,25.5c-0.3-0.6-0.9-0.9-1.5-1c-0.5,0-1,0.2-1.4,0.6c-0.1,0.3-0.2,0.7-0.2,1v1.5h1.8v1.8H75v6.8h2V38
			h-5.6v-1.8H72.9z"/>
		<path class="st3" d="M77.3,29.4v-1.8h1.3V26l2-1.9v3.5h1.9v1.8h-1.9v5c0,0.5,0,1,0.1,1.5c0.1,0.2,0.3,0.3,0.7,0.3
			c0.4,0,0.8,0,1.1-0.2v1.8c-0.5,0.2-1,0.3-1.6,0.3c-0.5,0-1.1-0.1-1.5-0.4c-0.4-0.2-0.6-0.6-0.7-1c-0.1-0.7-0.2-1.4-0.2-2.1v-5.2
			H77.3z"/>
		<path class="st3" d="M83.4,38v-3.6h1.8v0.3c0.1,0.5,0.3,1,0.8,1.2c0.5,0.3,1.1,0.5,1.6,0.5c0.5,0,1.1-0.1,1.6-0.3
			c0.4-0.2,0.6-0.6,0.6-1c0-0.4-0.2-0.7-0.5-0.9c-0.6-0.3-1.3-0.4-1.9-0.5c-1.1-0.1-2.2-0.5-3.1-1.2c-0.6-0.5-0.9-1.3-0.9-2.1
			c0-0.8,0.4-1.6,1-2.2c0.7-0.6,1.6-0.9,2.6-0.9c0.9,0,1.8,0.2,2.5,0.6v-0.4h1.8v3.4h-1.8v-0.6c-0.5-0.8-1.4-1.3-2.4-1.3
			c-0.5,0-0.9,0.1-1.3,0.4c-0.3,0.2-0.5,0.5-0.5,0.9c0,0.3,0.2,0.7,0.5,0.8c0.6,0.2,1.3,0.4,2,0.5c0.8,0.1,1.5,0.3,2.3,0.6
			c0.5,0.2,1,0.5,1.3,1c0.3,0.5,0.5,1.1,0.5,1.7c0,0.9-0.4,1.8-1.1,2.3c-1.7,1.1-3.9,1.1-5.6,0.1V38H83.4z"/>
	</g>
</g>
</svg>
